<svg xmlns="http://www.w3.org/2000/svg" xmlns:xlink="http://www.w3.org/1999/xlink" xmlns:inkscape="http://www.inkscape.org/namespaces/inkscape" version="1.1" width="283.46" height="283.46" viewBox="0 0 283.46 283.46">
<defs>
<clipPath id="clip_1">
<path transform="matrix(1,0,0,-1,0,283.46)" d="M0 283.46H283.46V0H0Z"/>
</clipPath>
<clipPath id="clip_2">
<path transform="matrix(1,0,0,-1,0,283.46)" d="M76.6489 119.989H209.192V172.917H76.6489Z"/>
</clipPath>
</defs>
<g>
<g inkscape:groupmode="layer" inkscape:label="Layer 1">
<g clip-path="url(#clip_1)">
<path transform="matrix(1,0,0,-1,148.4775,46.36479)" d="M0 0C.062-.44-.197-.625-.589-.411L-5.328 2.196C-5.716 2.41-6.359 2.422-6.756 2.222L-11.589-.203C-11.986-.403-12.242-.209-12.16 .228L-11.146 5.54C-11.063 5.977-11.249 6.591-11.56 6.908L-15.361 10.754C-15.676 11.071-15.569 11.375-15.129 11.43L-9.764 12.106C-9.323 12.163-8.794 12.53-8.591 12.925L-6.107 17.729C-5.904 18.123-5.581 18.117-5.393 17.716L-3.091 12.821C-2.903 12.419-2.388 12.032-1.95 11.96L3.384 11.081C3.824 11.009 3.919 10.702 3.594 10.397L-.347 6.697C-.672 6.392-.884 5.783-.815 5.346Z" fill="#831c36"/>
<path transform="matrix(1,0,0,-1,126.7993,55.869188)" d="M0 0C.062-.391-.173-.556-.521-.365L-4.742 1.957C-5.089 2.147-5.663 2.16-6.015 1.981L-10.319-.18C-10.674-.357-10.904-.186-10.827 .204L-9.925 4.936C-9.852 5.324-10.016 5.872-10.295 6.154L-13.682 9.58C-13.958 9.861-13.864 10.133-13.473 10.183L-8.693 10.786C-8.302 10.834-7.832 11.163-7.649 11.515L-5.436 15.794C-5.254 16.145-4.968 16.139-4.801 15.78L-2.749 11.422C-2.582 11.063-2.123 10.718-1.734 10.655L3.019 9.872C3.41 9.809 3.492 9.533 3.204 9.264L-.306 5.967C-.597 5.695-.782 5.153-.724 4.763Z" fill="#831c36"/>
<path transform="matrix(1,0,0,-1,169.1934,55.869188)" d="M0 0C.057-.391-.179-.556-.525-.365L-4.745 1.957C-5.092 2.147-5.666 2.16-6.02 1.981L-10.322-.18C-10.679-.357-10.903-.186-10.832 .204L-9.929 4.936C-9.854 5.324-10.02 5.872-10.298 6.154L-13.685 9.58C-13.961 9.861-13.867 10.133-13.477 10.183L-8.697 10.786C-8.307 10.834-7.835 11.163-7.653 11.515L-5.438 15.794C-5.257 16.145-4.973 16.139-4.804 15.78L-2.754 11.422C-2.585 11.063-2.125 10.718-1.734 10.655L3.016 9.872C3.406 9.809 3.489 9.533 3.199 9.264L-.31 5.967C-.598 5.695-.785 5.153-.727 4.763Z" fill="#831c36"/>
<path transform="matrix(1,0,0,-1,192.0557,62.44539)" d="M0 0C24.984-16.769 41.484-45.667 41.484-78.509 41.484-104.428 31.206-127.888 14.591-144.872-2.024-161.856-24.972-172.357-50.319-172.357-75.669-172.357-98.616-161.856-115.231-144.872-131.847-127.888-142.124-104.428-142.124-78.509-142.124-45.85-125.805-17.092-101.057-.283-100.871-.158-100.821 .096-100.948 .281-101.074 .466-101.327 .514-101.512 .388-126.479-16.568-142.935-45.577-142.935-78.509-142.935-104.644-132.569-128.311-115.81-145.437-99.054-162.566-75.896-173.169-50.319-173.169-24.744-173.169-1.585-162.566 15.175-145.437 31.931-128.311 42.297-104.644 42.297-78.509 42.297-45.392 25.656-16.244 .452 .671 .263 .796 .013 .748-.112 .561-.235 .376-.186 .124 0 0" fill="#831c36"/>
<path transform="matrix(1,0,0,-1,130.5942,240.8702)" d="M0 0C-1.861-1.558-4.156-3.532-5.894-5.173L-6.05-5.01-5.894-5.173C-8.49-7.613-11.874-11.653-13.394-13.504-13.644-13.811-13.834-14.045-13.969-14.211-12-14.333-5.07-14.386-.731-9.619 3.592-4.873 3.281 .901 3.086 2.552 2.928 2.424 2.675 2.218 2.337 1.94 1.749 1.458 .93 .777 0 0" fill="#831c36"/>
<path transform="matrix(1,0,0,-1,124.1299,245.43659)" d="M0 0C2.928 2.762 7.355 6.395 8.763 7.548 6.644 7.36 .25 6.515-3.463 2.798-7.22-.96-7.908-7.062-8.034-8.979-6.87-7.544-2.978-2.812 0 0" fill="#831c36"/>
<path transform="matrix(1,0,0,-1,110.2754,209.1807)" d="M0 0C.729-2.287 2.384-7.28 3.872-10.472L3.666-10.565 3.872-10.472C4.868-12.609 6.247-15.243 7.378-17.344 7.942-18.396 8.445-19.306 8.807-19.959 9.007-20.324 9.163-20.6 9.26-20.777 9.989-19.312 12.164-14.609 9.916-8.643 7.661-2.652 1.525 .294-.277 .873-.212 .667-.121 .379 0 0" fill="#831c36"/>
<path transform="matrix(1,0,0,-1,109.2847,208.7705)" d="M0 0C-.639-1.865-2.79-7.774-.709-12.613 1.352-17.4 7.487-20.5 9.4-21.363 8.542-19.822 5.812-14.878 4.127-11.26 2.422-7.598 .552-1.769 0 0" fill="#831c36"/>
<path transform="matrix(1,0,0,-1,83.5615,201.17969)" d="M0 0-.22-.042 0 0C.406-2.193 1.044-4.936 1.583-7.125 1.85-8.219 2.093-9.178 2.27-9.859 2.367-10.232 2.44-10.521 2.49-10.706 3.517-9.524 6.6-5.74 5.959 .237 5.315 6.244 .424 10.39-1.105 11.364-1.096 11.159-1.082 10.877-1.061 10.507-.934 8.239-.602 3.275 0 0" fill="#831c36"/>
<path transform="matrix(1,0,0,-1,82.7769,201.3584)" d="M0 0C-.69 3.751-1.02 9.509-1.111 11.279-2.148 9.704-5.494 4.821-4.739-.088-3.989-4.944 .865-9.222 2.429-10.486 2.002-8.855 .682-3.7 0 0" fill="#831c36"/>
<path transform="matrix(1,0,0,-1,77.5972,187.0176)" d="M0 0C.13 6.271-4.315 10.91-5.739 12.02-5.756 11.807-5.779 11.507-5.806 11.11-5.937 9.272-6.153 5.728-6.153 2.628-6.153 1.751-6.138 .91-6.094 .153L-6.32 .14-6.094 .153C-5.97-2.15-5.677-5.034-5.415-7.338-5.286-8.494-5.162-9.503-5.073-10.223-5.023-10.61-4.985-10.906-4.959-11.105-3.771-9.959-.129-6.25 0 0" fill="#831c36"/>
<path transform="matrix(1,0,0,-1,70.6304,184.44049)" d="M0 0C0 3.61 .288 7.752 .399 9.227-.855 7.676-4.907 2.842-4.774-2.303-4.645-7.396-.25-12.177 1.167-13.583 .95-11.889 .273-6.424 .059-2.526 .017-1.746 0-.893 0 0" fill="#831c36"/>
<path transform="matrix(1,0,0,-1,67.1235,159.99219)" d="M0 0C-.068-.187-.165-.453-.289-.804-1.023-2.889-2.581-7.469-3.267-10.579L-3.484-10.532-3.267-10.579C-3.722-12.666-4.175-15.306-4.512-17.417-4.681-18.475-4.822-19.4-4.918-20.062-4.969-20.4-5.007-20.662-5.033-20.845-3.66-20.013 .499-17.332 2.157-11.772 3.821-6.2 1.016-1.278 0 0" fill="#831c36"/>
<path transform="matrix(1,0,0,-1,66.2798,160.04499)" d="M0 0C-1.547-1.195-6.326-4.797-7.479-9.403-8.62-13.972-5.888-19.004-4.954-20.542-4.728-18.979-3.98-13.966-3.205-10.436-2.428-6.907-.6-1.682 0 0" fill="#831c36"/>
<path transform="matrix(1,0,0,-1,65.6738,145.0264)" d="M0 0C-.114-.135-.279-.325-.494-.581-1.77-2.092-4.527-5.423-6.076-7.771L-6.264-7.647-6.076-7.771C-7.117-9.347-8.322-11.37-9.269-12.998-9.739-13.81-10.148-14.525-10.436-15.035-10.571-15.272-10.673-15.459-10.753-15.597-9.284-15.235-4.936-14.031-1.817-9.966 1.308-5.894 .477-1.315 0 0" fill="#831c36"/>
<path transform="matrix(1,0,0,-1,64.8599,144.8575)" d="M0 0C-1.761-.626-6.876-2.417-9.261-5.82-11.636-9.214-10.892-13.852-10.563-15.354-9.878-14.135-7.69-10.281-5.936-7.617-4.198-4.985-1.08-1.267 0 0" fill="#831c36"/>
<path transform="matrix(1,0,0,-1,63.54,131.5987)" d="M0 0C-.115-.128-.277-.308-.491-.545-1.764-1.965-4.513-5.1-6.074-7.319L-6.256-7.191-6.074-7.319C-7.117-8.809-8.338-10.723-9.293-12.26-9.769-13.031-10.184-13.706-10.474-14.191-10.609-14.412-10.713-14.585-10.789-14.715-9.352-14.396-5.136-13.328-2.022-9.508 1.096-5.681 .426-1.285 0 0" fill="#831c36"/>
<path transform="matrix(1,0,0,-1,62.7397,131.41699)" d="M0 0C-1.731-.567-6.697-2.173-9.083-5.376-11.458-8.567-10.876-13.014-10.597-14.476-9.897-13.313-7.687-9.674-5.926-7.164-4.183-4.686-1.087-1.204 0 0" fill="#831c36"/>
<path transform="matrix(1,0,0,-1,65.0679,115.9771)" d="M0 0C-.111-.123-.27-.298-.479-.529-1.728-1.911-4.433-4.959-5.964-7.117L-6.15-6.987-5.964-7.117C-6.993-8.563-8.192-10.424-9.133-11.921-9.604-12.668-10.009-13.325-10.297-13.796-10.426-14.006-10.526-14.171-10.603-14.298-9.187-13.982-5.067-12.931-2.013-9.22 1.05-5.503 .415-1.251 0 0" fill="#831c36"/>
<path transform="matrix(1,0,0,-1,64.313,115.7549)" d="M0 0C-1.584-.339-6.023-.812-9.234-4.863-12.179-8.582-10.859-12.753-10.465-14.131-9.792-13.024-7.6-9.458-5.856-7.003-4.125-4.569-1.038-1.139 0 0" fill="#831c36"/>
<path transform="matrix(1,0,0,-1,68.3164,101.44829)" d="M0 0C-1.311-1.149-4.147-3.694-5.803-5.541-6.917-6.78-8.231-8.388-9.266-9.685-9.786-10.333-10.233-10.903-10.55-11.312-10.691-11.491-10.803-11.632-10.885-11.741-9.527-11.615-5.62-11.118-2.398-8.005 .835-4.883 .732-.812 .494 .434 .376 .331 .212 .188 0 0" fill="#831c36"/>
<path transform="matrix(1,0,0,-1,68.1143,100.699298)" d="M0 0C-1.52-.124-5.653-.043-9.055-3.456-12.18-6.591-11.448-10.665-11.229-12.032-10.475-11.056-8.064-7.978-6.186-5.884-4.319-3.804-1.097-.956 0 0" fill="#831c36"/>
<path transform="matrix(1,0,0,-1,65.3447,95.75049)" d="M0 0C1.291 .826 2.89 1.877 4.127 2.773L4.259 2.591 4.127 2.773C5.97 4.109 8.534 6.447 9.695 7.527 9.875 7.693 10.012 7.824 10.115 7.919 8.91 8.227 5.021 8.61 1.896 5.974-1.214 3.349-1.864-.071-2.046-1.289-1.94-1.223-1.796-1.135-1.617-1.021-1.211-.769-.644-.411 0 0" fill="#831c36"/>
<path transform="matrix(1,0,0,-1,63.7334,97.58789)" d="M0 0C1.317-.298 5.18-1.241 8.314 1.299 11.721 4.061 11.83 7.727 12.012 9.09 11.048 8.185 8.173 5.527 6.094 4.017 4.019 2.514 .997 .619 0 0" fill="#831c36"/>
<path transform="matrix(1,0,0,-1,74.0259,82.72069)" d="M0 0C1.254 .536 2.815 1.22 4.024 1.82L4.121 1.627 4.024 1.82C5.823 2.712 8.348 4.352 9.492 5.114 9.648 5.218 9.771 5.301 9.868 5.366 8.713 5.766 5.059 6.527 2.008 4.712-1.017 2.913-1.782 .181-2.008-.836-1.902-.792-1.758-.734-1.576-.658-1.182-.497-.63-.266 0 0" fill="#831c36"/>
<path transform="matrix(1,0,0,-1,72.4385,84.104999)" d="M0 0C1.276-.416 4.868-1.618 7.914 .109 11.229 1.989 11.497 4.994 11.717 6.128 10.776 5.494 7.931 3.613 5.891 2.599 3.895 1.609 1.023 .419 0 0" fill="#831c36"/>
<path transform="matrix(1,0,0,-1,85.4551,72.20169)" d="M0 0C1.058 .449 2.372 1.027 3.386 1.529L3.469 1.368 3.386 1.529C4.897 2.279 7.023 3.661 7.987 4.3 8.108 4.383 8.202 4.444 8.278 4.497 7.264 4.837 4.239 5.438 1.705 3.933-.8 2.444-1.464 .193-1.667-.694-1.578-.659-1.467-.614-1.326-.555-.993-.418-.529-.225 0 0" fill="#831c36"/>
<path transform="matrix(1,0,0,-1,84.1885,73.417499)" d="M0 0C1.117-.367 4.086-1.322 6.605 .109 9.345 1.663 9.612 4.133 9.798 5.125 8.978 4.574 6.62 3.017 4.918 2.172 3.262 1.352 .894 .366 0 0" fill="#831c36"/>
<path transform="matrix(1,0,0,-1,94.6743,202.25589)" d="M0 0C.661-2.262 2.167-7.205 3.539-10.353 4.459-12.468 5.738-15.068 6.784-17.137 7.308-18.172 7.775-19.074 8.11-19.718 8.293-20.064 8.434-20.334 8.525-20.51 9.248-19.034 11.389-14.33 9.334-8.437 7.273-2.521 1.473 .315-.253 .87-.194 .667-.111 .38 0 0" fill="#831c36"/>
<path transform="matrix(1,0,0,-1,97.4878,212.98538)" d="M0 0C-1.57 3.607-3.26 9.346-3.769 11.118-4.411 9.239-6.544 3.346-4.634-1.426-2.74-6.15 3.063-9.135 4.885-9.968 4.091-8.458 1.555-3.573 0 0" fill="#831c36"/>
<path transform="matrix(1,0,0,-1,115.1377,235.7901)" d="M0 0C-2.073-1.257-4.639-2.862-6.603-4.226-9.537-6.25-13.487-9.73-15.269-11.341-15.563-11.606-15.784-11.804-15.942-11.953-14.014-12.364-7.173-13.458-2.167-9.396 2.819-5.35 3.38 .4 3.434 2.063 3.257 1.957 2.977 1.794 2.602 1.571 1.949 1.183 1.035 .636 0 0" fill="#831c36"/>
<path transform="matrix(1,0,0,-1,117.8564,233.1856)" d="M0 0C-2.123 .137-8.572 .253-12.799-2.861-17.077-6.008-18.673-11.939-19.084-13.814-17.72-12.575-13.161-8.479-9.795-6.143-6.485-3.856-1.564-.923 0 0" fill="#831c36"/>
<path transform="matrix(1,0,0,-1,50.9165,176.71199)" d="M0 0C-1.708 .991-3.857 2.204-5.591 3.079-8.178 4.389-12.205 5.86-14.046 6.511-14.332 6.61-14.552 6.69-14.716 6.747-14.231 5.138-12.32-.1-7.522-2.081-2.743-4.055 1.529-2.274 2.79-1.646 2.643-1.562 2.423-1.427 2.134-1.256 1.603-.937 .855-.497 0 0" fill="#831c36"/>
<path transform="matrix(1,0,0,-1,45.6665,172.9522)" d="M0 0C2.89-1.462 6.834-3.803 8.158-4.593 7.39-2.96 4.971 1.604 1.146 3.397-2.716 5.209-7.482 4.098-9.052 3.647-7.57 3.134-2.946 1.487 0 0" fill="#831c36"/>
<path transform="matrix(1,0,0,-1,100.0098,230.77449)" d="M0 0C-2.251-.906-5.045-2.064-7.208-3.087L-7.303-2.881-7.208-3.087C-10.43-4.604-14.898-7.391-16.923-8.685-17.253-8.896-17.506-9.062-17.686-9.178-15.854-9.902-9.284-12.1-3.678-8.912 1.905-5.743 3.401-.159 3.727 1.47 3.533 1.394 3.23 1.275 2.822 1.118 2.114 .847 1.125 .453 0 0" fill="#831c36"/>
<path transform="matrix(1,0,0,-1,103.1196,228.65239)" d="M0 0C-2.072 .482-8.413 1.657-13.096-.722-17.832-3.127-20.38-8.713-21.095-10.5-19.54-9.496-14.372-6.202-10.671-4.456-7.031-2.738-1.696-.652 0 0" fill="#831c36"/>
<path transform="matrix(1,0,0,-1,85.4082,222.17969)" d="M0 0C-2.334-.65-5.242-1.504-7.5-2.273L-7.573-2.063-7.5-2.273C-10.872-3.432-15.619-5.707-17.773-6.772-18.126-6.948-18.394-7.084-18.584-7.178-16.845-8.101-10.553-11.013-4.633-8.459 1.264-5.92 3.363-.534 3.869 1.049 3.668 .996 3.354 .914 2.931 .802 2.196 .606 1.17 .324 0 0" fill="#831c36"/>
<path transform="matrix(1,0,0,-1,88.7363,220.4141)" d="M0 0C-2.008 .706-8.185 2.569-13.1 .721-18.068-1.147-21.217-6.422-22.122-8.12-20.47-7.291-14.97-4.586-11.098-3.258-7.291-1.953-1.758-.464 0 0" fill="#831c36"/>
<path transform="matrix(1,0,0,-1,74.3135,213.00299)" d="M0 0C-2.378-.206-5.344-.493-7.669-.831L-7.702-.607-7.669-.831C-11.141-1.334-16.145-2.668-18.419-3.308-18.791-3.409-19.076-3.489-19.278-3.549-17.755-4.762-12.211-8.712-6.026-7.327 .135-5.949 3.146-1.134 3.925 .31 3.725 .294 3.404 .273 2.978 .241 2.231 .186 1.188 .104 0 0" fill="#831c36"/>
<path transform="matrix(1,0,0,-1,77.8442,211.8955)" d="M0 0C-1.82 1.054-7.44 3.976-12.526 3.085-17.67 2.182-21.671-2.335-22.859-3.813-21.101-3.313-15.301-1.701-11.317-1.125-7.402-.554-1.791-.128 0 0" fill="#831c36"/>
<path transform="matrix(1,0,0,-1,56.6396,188.5918)" d="M0 0C-2.139 .506-4.814 1.105-6.937 1.478L-6.899 1.699-6.937 1.478C-10.1 2.037-14.783 2.308-16.917 2.408-17.244 2.422-17.5 2.435-17.685 2.44-16.556 .914-12.432-4.104-6.719-4.672-1.042-5.235 2.543-1.925 3.541-.863 3.357-.817 3.07-.747 2.682-.65 2.011-.482 1.074-.253 0 0" fill="#831c36"/>
<path transform="matrix(1,0,0,-1,49.8057,186.3301)" d="M0 0C3.536-.624 8.507-1.848 10.166-2.262 8.737-.791 4.362 3.338-.277 4.019-4.971 4.706-9.36 1.937-10.721 .97-9.069 .9-3.63 .64 0 0" fill="#831c36"/>
<path transform="matrix(1,0,0,-1,51.29,106.6187)" d="M0 0C-.232 1.702-.547 3.82-.867 5.465L-.647 5.507-.867 5.465C-1.344 7.915-2.446 11.369-2.966 12.935-3.037 13.154-3.096 13.326-3.14 13.459-3.969 12.191-6.474 8.47-5.315 4.242-4.163 .043-.747-2.26 .362-2.788 .344-2.64 .317-2.421 .279-2.135 .215-1.601 .118-.852 0 0" fill="#831c36"/>
<path transform="matrix(1,0,0,-1,52.3101,108.96289)" d="M0 0C.764 1.453 2.958 5.213 2.17 8.716 1.373 12.258-2.243 15.127-3.455 15.955-3.025 14.68-1.741 10.768-1.2 7.986-.67 5.277-.171 1.378 0 0" fill="#831c36"/>
<path transform="matrix(1,0,0,-1,56.9165,92.63629)" d="M0 0C.006 .564 .012 1.175 .012 1.799 .012 2.996-.006 4.238-.05 5.283L.176 5.292-.05 5.283C-.15 7.654-.676 11.006-.935 12.523-.967 12.713-.994 12.864-1.014 12.988-1.939 11.768-4.66 8.246-4.186 4.164-3.716 .125-.991-2.157-.047-2.708-.044-2.567-.038-2.349-.032-2.063-.021-1.546-.008-.822 0 0" fill="#831c36"/>
<path transform="matrix(1,0,0,-1,57.6133,90.76759)" d="M0 0C0-1.714-.033-3.325-.05-4.141 .85-2.729 3.278 .819 3.04 4.183 2.798 7.59-.03 10.413-1.025 11.253-.814 10.028-.177 6.217-.062 3.517-.015 2.455 0 1.202 0 0" fill="#831c36"/>
<path transform="matrix(1,0,0,-1,63.9893,82.36919)" d="M0 0C.294 1.494 .641 3.356 .85 4.812L1.067 4.781 .85 4.812C1.162 6.983 1.25 10.116 1.273 11.538 1.275 11.707 1.279 11.843 1.279 11.955 .218 10.978-2.813 8.219-3.075 4.452-3.331 .726-1.276-1.777-.502-2.447-.473-2.32-.432-2.125-.382-1.871-.282-1.404-.147-.747 0 0" fill="#831c36"/>
<path transform="matrix(1,0,0,-1,65.9473,70.40779)" d="M0 0C-.014-1.167-.085-4.711-.436-7.174-.77-9.52-1.45-12.833-1.717-14.111-.644-12.955 2.122-10.134 2.472-7.059 2.828-3.947 .776-.949 0 0" fill="#831c36"/>
<path transform="matrix(1,0,0,-1,72.1885,72.173389)" d="M0 0C.35 1.378 .764 3.092 1.032 4.429L1.22 4.392 1.032 4.429C1.431 6.423 1.681 9.28 1.781 10.576 1.793 10.716 1.801 10.833 1.808 10.931 .77 10.113-2.138 8.315-2.575 4.895-3.008 1.514-1.264-1.483-.579-2.238-.55-2.121-.503-1.947-.444-1.724-.33-1.291-.174-.687 0 0" fill="#831c36"/>
<path transform="matrix(1,0,0,-1,74.6519,61.267595)" d="M0 0C-.083-1.104-.338-4.282-.786-6.517-1.214-8.667-2.005-11.717-2.32-12.9-1.258-11.996 1.429-10.312 1.911-7.511 2.399-4.681 .673-1.078 0 0" fill="#831c36"/>
<path transform="matrix(1,0,0,-1,79.6143,65.203189)" d="M0 0C.605 1.143 1.343 2.57 1.866 3.699L2.031 3.622 1.866 3.699C2.648 5.379 3.489 7.872 3.857 9.007 3.895 9.129 3.927 9.229 3.954 9.316 2.842 8.852-.097 7.997-1.217 5.061-2.323 2.163-1.437-.959-.991-1.839-.938-1.741-.862-1.604-.767-1.428-.573-1.072-.303-.572 0 0" fill="#831c36"/>
<path transform="matrix(1,0,0,-1,84.1738,56.099199)" d="M0 0C-.32-.998-1.224-3.739-2.091-5.607-2.934-7.419-4.286-9.931-4.821-10.918-3.672-10.386-.953-9.574 .07-7.208 1.105-4.819 .367-1.177 0 0" fill="#831c36"/>
<path transform="matrix(1,0,0,-1,88.1064,59.01619)" d="M0 0C.827 .959 1.841 2.163 2.587 3.129L2.728 3.021 2.587 3.129C3.699 4.566 5.042 6.768 5.639 7.772 5.701 7.877 5.753 7.966 5.797 8.042 4.627 7.84 1.641 7.655-.062 5.098-1.74 2.57-1.575-.597-1.34-1.541-1.267-1.459-1.167-1.347-1.041-1.2-.776-.901-.411-.48 0 0" fill="#831c36"/>
<path transform="matrix(1,0,0,-1,87.4741,60.69539)" d="M0 0C1.22 .259 3.987 .45 5.475 2.484 6.977 4.539 7.065 8.168 6.967 9.381 6.445 8.494 4.992 6.074 3.761 4.479 2.564 2.935 .732 .83 0 0" fill="#831c36"/>
<path transform="matrix(1,0,0,-1,48.1299,164.85749)" d="M0 0C-1.461 1.297-3.307 2.891-4.815 4.078-7.064 5.85-10.666 8.059-12.317 9.044-12.567 9.193-12.764 9.312-12.911 9.396-12.735 7.73-11.842 2.247-7.593-.604-3.363-3.441 1.055-2.516 2.384-2.142 2.261-2.028 2.069-1.854 1.822-1.632 1.369-1.219 .732-.645 0 0" fill="#831c36"/>
<path transform="matrix(1,0,0,-1,43.7759,160.17969)" d="M0 0C2.508-1.976 5.868-5.006 7-6.038 6.556-4.288 5.054 .628 1.708 3.106-1.666 5.606-6.437 5.434-8.037 5.291-6.711 4.507-2.563 2.016 0 0" fill="#831c36"/>
<path transform="matrix(1,0,0,-1,45.2285,150.57619)" d="M0 0C-1.087 1.594-2.47 3.567-3.625 5.068-5.347 7.302-8.24 10.264-9.575 11.598-9.772 11.796-9.928 11.951-10.045 12.068-10.242 10.385-10.589 4.81-7.229 1.074-3.886-2.639 .44-2.71 1.772-2.636 1.681-2.498 1.541-2.282 1.355-2.004 1.017-1.501 .547-.798 0 0" fill="#831c36"/>
<path transform="matrix(1,0,0,-1,42.1831,145.03319)" d="M0 0V0C1.935-2.512 4.447-6.265 5.268-7.504 5.43-5.804 6.302-1.244 2.26 2.68-.694 5.548-4.88 6.691-6.37 6.959-5.292 5.89-1.958 2.539 0 0" fill="#831c36"/>
<path transform="matrix(1,0,0,-1,44.8633,136.0098)" d="M0 0C-.667 1.771-1.528 3.972-2.287 5.677-3.421 8.218-5.529 11.773-6.511 13.383-6.661 13.631-6.781 13.825-6.869 13.968-7.508 12.506-9.313 7.589-6.943 3.2-4.583-1.17-.279-2.558 1.07-2.895 1.015-2.744 .932-2.516 .827-2.222 .624-1.666 .335-.886 0 0" fill="#831c36"/>
<path transform="matrix(1,0,0,-1,43.2642,130.0376)" d="M0 0C1.277-2.871 2.808-7.051 3.296-8.397 3.905-6.914 5.974-3.069 2.969 1.704 .777 5.187-3.095 7.495-4.518 8.198-3.706 6.876-1.281 2.872 0 0" fill="#831c36"/>
<path transform="matrix(1,0,0,-1,46.6455,119.8472)" d="M0 0C-.389 1.834-.897 4.117-1.382 5.896L-1.164 5.955-1.382 5.896C-2.103 8.547-3.619 12.314-4.331 14.023-4.436 14.281-4.522 14.484-4.586 14.633-5.415 13.25-7.867 8.577-6.22 3.953-4.583-.647-.644-2.512 .611-3.001 .579-2.844 .532-2.608 .47-2.299 .355-1.723 .194-.917 0 0" fill="#831c36"/>
<path transform="matrix(1,0,0,-1,47.936,122.458499)" d="M0 0C.873 1.435 3.951 5.275 1.746 10.364 .129 14.093-3.787 16.588-5.127 17.385-4.548 16.012-2.778 11.721-1.956 8.705-1.141 5.714-.273 1.396 0 0" fill="#831c36"/>
<path transform="matrix(1,0,0,-1,64.0508,201.13289)" d="M0 0C-1.784 .067-3.917 .127-5.823 .127-6.322 .127-6.805 .121-7.264 .111L-7.266 .338-7.264 .111C-10.547 .05-15.289-.603-17.444-.926-17.773-.973-18.032-1.014-18.22-1.044-16.761-2.341-11.529-6.551-5.688-5.993 .118-5.437 2.975-1.416 3.734-.163 3.545-.156 3.237-.139 2.82-.12 2.114-.085 1.126-.04 0 0" fill="#831c36"/>
<path transform="matrix(1,0,0,-1,58.1895,200.21199)" d="M0 0C3.483 0 7.675-.193 9.202-.271 7.452 .914 2.164 4.186-2.625 3.95-7.478 3.716-11.259 .07-12.403-1.158-10.748-.903-5.239-.09-1.461-.013-.997-.003-.506 0 0 0" fill="#831c36"/>
<path transform="matrix(1,0,0,-1,95.4116,60.242189)" d="M0 0C1.056 .45 2.37 1.026 3.387 1.53 4.898 2.28 7.023 3.66 7.984 4.301 8.108 4.381 8.2 4.445 8.278 4.498 7.264 4.837 4.236 5.439 1.706 3.934-.799 2.445-1.464 .194-1.666-.695-1.579-.66-1.467-.613-1.325-.555-.994-.418-.528-.224 0 0" fill="#831c36"/>
<path transform="matrix(1,0,0,-1,94.1426,61.457094)" d="M0 0C1.119-.367 4.089-1.322 6.608 .107 9.347 1.663 9.616 4.133 9.8 5.125 8.98 4.572 6.622 3.017 4.92 2.172 3.266 1.352 .893 .366 0 0" fill="#831c36"/>
<path transform="matrix(1,0,0,-1,126.9048,211.0118)" d="M0 0C.461-2.355 1.532-7.506 2.643-10.844L2.428-10.915 2.643-10.844C3.387-13.082 4.454-15.863 5.336-18.075 5.777-19.187 6.17-20.15 6.453-20.84 6.612-21.228 6.732-21.515 6.812-21.703 7.702-20.332 10.404-15.91 8.857-9.729 7.305-3.515 1.552 .116-.173 .897-.132 .687-.076 .391 0 0" fill="#831c36"/>
<path transform="matrix(1,0,0,-1,125.9673,210.48929)" d="M0 0C-.847-1.782-3.666-7.402-2.152-12.447-.656-17.44 5.083-21.226 6.882-22.303 6.206-20.673 4.062-15.446 2.807-11.66 1.535-7.829 .35-1.819 0 0" fill="#831c36"/>
<path transform="matrix(1,0,0,-1,152.8652,240.8702)" d="M0 0C1.861-1.558 4.156-3.532 5.894-5.173L6.05-5.01 5.894-5.173C8.487-7.613 11.871-11.653 13.394-13.504 13.644-13.811 13.831-14.045 13.968-14.211 12-14.333 5.071-14.386 .729-9.619-3.592-4.873-3.285 .901-3.086 2.552-2.929 2.424-2.676 2.218-2.338 1.94-1.748 1.458-.929 .777 0 0" fill="#831c36"/>
<path transform="matrix(1,0,0,-1,159.3301,245.43659)" d="M0 0C-2.931 2.762-7.355 6.395-8.763 7.548-6.644 7.36-.25 6.515 3.463 2.798 7.219-.96 7.906-7.062 8.035-8.979 6.866-7.544 2.979-2.812 0 0" fill="#831c36"/>
<path transform="matrix(1,0,0,-1,173.1836,209.1807)" d="M0 0C-.731-2.287-2.385-7.28-3.872-10.472L-3.669-10.565-3.872-10.472C-4.866-12.609-6.25-15.243-7.378-17.344-7.941-18.396-8.443-19.306-8.807-19.959-9.01-20.324-9.162-20.6-9.263-20.777-9.99-19.312-12.162-14.609-9.919-8.643-7.659-2.652-1.525 .294 .278 .873 .213 .667 .122 .379 0 0" fill="#831c36"/>
<path transform="matrix(1,0,0,-1,174.1738,208.7705)" d="M0 0C.637-1.865 2.791-7.774 .707-12.613-1.351-17.4-7.487-20.5-9.399-21.363-8.541-19.822-5.81-14.878-4.129-11.26-2.425-7.598-.554-1.769 0 0" fill="#831c36"/>
<path transform="matrix(1,0,0,-1,199.8984,201.17969)" d="M0 0 .22-.042 0 0C-.405-2.193-1.044-4.936-1.584-7.125-1.853-8.219-2.093-9.178-2.271-9.859-2.368-10.232-2.443-10.521-2.49-10.706-3.518-9.524-6.602-5.74-5.959 .237-5.314 6.244-.424 10.39 1.104 11.364 1.094 11.159 1.082 10.877 1.061 10.507 .935 8.239 .601 3.275 0 0" fill="#831c36"/>
<path transform="matrix(1,0,0,-1,200.6836,201.3584)" d="M0 0C.69 3.751 1.019 9.509 1.106 11.279 2.144 9.704 5.494 4.821 4.734-.088 3.987-4.944-.865-9.222-2.429-10.486-2.006-8.855-.684-3.7 0 0" fill="#831c36"/>
<path transform="matrix(1,0,0,-1,205.8613,187.0176)" d="M0 0C-.128 6.271 4.316 10.91 5.738 12.02 5.757 11.807 5.778 11.507 5.807 11.11 5.935 9.272 6.153 5.728 6.153 2.628 6.153 1.751 6.135 .91 6.094 .153L6.322 .14 6.094 .153C5.973-2.15 5.679-5.034 5.416-7.338 5.288-8.494 5.163-9.503 5.072-10.223 5.025-10.61 4.988-10.906 4.96-11.105 3.77-9.959 .129-6.25 0 0" fill="#831c36"/>
<path transform="matrix(1,0,0,-1,212.8301,184.44049)" d="M0 0C0 3.61-.293 7.752-.402 9.227 .851 7.676 4.903 2.842 4.772-2.303 4.645-7.396 .25-12.177-1.168-13.583-.949-11.889-.274-6.424-.062-2.526-.019-1.746 0-.893 0 0" fill="#831c36"/>
<path transform="matrix(1,0,0,-1,216.3369,159.99219)" d="M0 0C.068-.187 .162-.453 .284-.804 1.021-2.889 2.581-7.469 3.263-10.579L3.484-10.532 3.263-10.579C3.722-12.666 4.175-15.306 4.513-17.417 4.678-18.475 4.821-19.4 4.919-20.062 4.969-20.4 5.006-20.662 5.031-20.845 3.659-20.013-.503-17.332-2.163-11.772-3.822-6.2-1.019-1.278 0 0" fill="#831c36"/>
<path transform="matrix(1,0,0,-1,217.1807,160.04499)" d="M0 0C1.547-1.195 6.325-4.797 7.478-9.403 8.618-13.972 5.888-19.004 4.95-20.542 4.725-18.979 3.981-13.966 3.203-10.436 2.428-6.907 .6-1.682 0 0" fill="#831c36"/>
<path transform="matrix(1,0,0,-1,217.7871,145.0264)" d="M0 0C.112-.135 .277-.325 .493-.581 1.769-2.092 4.524-5.423 6.074-7.771L6.262-7.647 6.074-7.771C7.115-9.347 8.321-11.37 9.266-12.998 9.737-13.81 10.144-14.525 10.434-15.035 10.568-15.272 10.672-15.459 10.75-15.597 9.281-15.235 4.934-14.031 1.815-9.966-1.31-5.894-.481-1.315 0 0" fill="#831c36"/>
<path transform="matrix(1,0,0,-1,218.5957,144.8575)" d="M0 0C1.763-.626 6.882-2.417 9.263-5.82 11.641-9.214 10.897-13.852 10.566-15.354 9.882-14.135 7.694-10.281 5.941-7.617 4.203-4.985 1.082-1.267 0 0" fill="#831c36"/>
<path transform="matrix(1,0,0,-1,219.918,131.5987)" d="M0 0C.115-.128 .278-.308 .49-.545 1.763-1.965 4.516-5.1 6.072-7.319L6.256-7.191 6.072-7.319C7.119-8.809 8.338-10.723 9.294-12.26 9.771-13.031 10.182-13.706 10.475-14.191 10.609-14.412 10.716-14.585 10.791-14.715 9.354-14.396 5.138-13.328 2.025-9.508-1.094-5.681-.425-1.285 0 0" fill="#831c36"/>
<path transform="matrix(1,0,0,-1,220.7178,131.41699)" d="M0 0C1.734-.567 6.694-2.173 9.081-5.376 11.46-8.567 10.875-13.014 10.597-14.476 9.9-13.313 7.687-9.674 5.925-7.164 4.185-4.686 1.088-1.204 0 0" fill="#831c36"/>
<path transform="matrix(1,0,0,-1,218.3867,115.9771)" d="M0 0C.115-.123 .275-.298 .484-.529 1.734-1.911 4.437-4.959 5.969-7.117L6.153-6.987 5.969-7.117C6.997-8.563 8.197-10.424 9.138-11.921 9.609-12.668 10.016-13.325 10.303-13.796 10.432-14.006 10.531-14.171 10.609-14.298 9.19-13.982 5.068-12.931 2.016-9.22-1.044-5.503-.409-1.251 0 0" fill="#831c36"/>
<path transform="matrix(1,0,0,-1,219.1465,115.7549)" d="M0 0C1.584-.339 6.024-.812 9.234-4.863 12.181-8.582 10.859-12.753 10.462-14.131 9.79-13.024 7.6-9.458 5.855-7.003 4.125-4.569 1.037-1.139 0 0" fill="#831c36"/>
<path transform="matrix(1,0,0,-1,215.1426,101.44829)" d="M0 0C1.312-1.149 4.147-3.694 5.804-5.541 6.913-6.78 8.231-8.388 9.266-9.685 9.785-10.333 10.234-10.903 10.551-11.312 10.691-11.491 10.801-11.632 10.885-11.741 9.525-11.615 5.622-11.118 2.4-8.005-.834-4.883-.734-.812-.493 .434-.375 .331-.212 .188 0 0" fill="#831c36"/>
<path transform="matrix(1,0,0,-1,215.3457,100.699298)" d="M0 0C1.52-.124 5.65-.043 9.054-3.456 12.179-6.591 11.444-10.665 11.229-12.032 10.473-11.056 8.063-7.978 6.185-5.884 4.319-3.804 1.098-.956 0 0" fill="#831c36"/>
<path transform="matrix(1,0,0,-1,218.1152,95.75049)" d="M0 0C-1.291 .826-2.891 1.877-4.129 2.773L-4.26 2.591-4.129 2.773C-5.973 4.109-8.538 6.447-9.694 7.527-9.875 7.693-10.013 7.824-10.116 7.919-8.913 8.227-5.022 8.61-1.897 5.974 1.215 3.349 1.862-.071 2.047-1.289 1.937-1.223 1.797-1.135 1.615-1.021 1.212-.769 .644-.411 0 0" fill="#831c36"/>
<path transform="matrix(1,0,0,-1,219.7275,97.58789)" d="M0 0C-1.322-.298-5.182-1.241-8.315 1.299-11.722 4.061-11.831 7.727-12.013 9.09-11.05 8.185-8.175 5.527-6.097 4.017-4.019 2.514-.997 .619 0 0" fill="#831c36"/>
<path transform="matrix(1,0,0,-1,209.4336,82.72069)" d="M0 0C-1.256 .536-2.815 1.22-4.025 1.82L-4.122 1.627-4.025 1.82C-5.822 2.712-8.351 4.352-9.494 5.114-9.65 5.218-9.771 5.301-9.872 5.366-8.716 5.766-5.062 6.527-2.006 4.712 1.019 2.913 1.781 .181 2.01-.836 1.903-.792 1.76-.734 1.575-.658 1.178-.497 .628-.266 0 0" fill="#831c36"/>
<path transform="matrix(1,0,0,-1,211.0176,84.104999)" d="M0 0C-1.274-.416-4.868-1.618-7.909 .109-11.226 1.989-11.493 4.994-11.716 6.128-10.772 5.494-7.931 3.613-5.887 2.599-3.894 1.609-1.019 .419 0 0" fill="#831c36"/>
<path transform="matrix(1,0,0,-1,198.002,72.20169)" d="M0 0C-1.056 .449-2.369 1.027-3.384 1.529L-3.466 1.368-3.384 1.529C-4.895 2.279-7.024 3.661-7.984 4.3-8.105 4.383-8.199 4.444-8.277 4.497-7.262 4.837-4.237 5.438-1.703 3.933 .803 2.444 1.463 .193 1.666-.694 1.582-.659 1.466-.614 1.325-.555 .994-.418 .528-.225 0 0" fill="#831c36"/>
<path transform="matrix(1,0,0,-1,199.2715,73.417499)" d="M0 0C-1.119-.367-4.089-1.322-6.607 .109-9.348 1.663-9.613 4.133-9.801 5.125-8.979 4.574-6.622 3.017-4.922 2.172-3.266 1.352-.895 .366 0 0" fill="#831c36"/>
<path transform="matrix(1,0,0,-1,188.7861,202.25589)" d="M0 0C-.665-2.262-2.171-7.205-3.54-10.353-4.46-12.468-5.74-15.068-6.786-17.137-7.312-18.172-7.775-19.074-8.112-19.718-8.293-20.064-8.434-20.334-8.525-20.51-9.249-19.034-11.39-14.33-9.334-8.437-7.274-2.521-1.475 .315 .25 .87 .194 .667 .109 .38 0 0" fill="#831c36"/>
<path transform="matrix(1,0,0,-1,185.9707,212.98538)" d="M0 0C1.569 3.607 3.26 9.346 3.77 11.118 4.412 9.239 6.544 3.346 4.632-1.426 2.741-6.15-3.063-9.135-4.884-9.968-4.09-8.458-1.553-3.573 0 0" fill="#831c36"/>
<path transform="matrix(1,0,0,-1,168.3213,235.7901)" d="M0 0C2.074-1.257 4.641-2.862 6.603-4.226 9.534-6.25 13.484-9.73 15.269-11.341 15.562-11.606 15.784-11.804 15.943-11.953 14.016-12.364 7.175-13.458 2.165-9.396-2.822-5.35-3.379 .4-3.435 2.063-3.26 1.957-2.978 1.794-2.601 1.571-1.947 1.183-1.034 .636 0 0" fill="#831c36"/>
<path transform="matrix(1,0,0,-1,165.5996,233.1856)" d="M0 0C2.127 .137 8.571 .253 12.803-2.861 17.081-6.008 18.677-11.939 19.087-13.814 17.722-12.575 13.165-8.479 9.8-6.143 6.489-3.856 1.568-.923 0 0" fill="#831c36"/>
<path transform="matrix(1,0,0,-1,232.54,176.71199)" d="M0 0C1.712 .991 3.856 2.204 5.594 3.079 8.181 4.389 12.206 5.86 14.05 6.511 14.331 6.61 14.553 6.69 14.719 6.747 14.234 5.138 12.321-.1 7.521-2.081 2.747-4.055-1.525-2.274-2.788-1.646-2.644-1.562-2.419-1.427-2.132-1.256-1.601-.937-.854-.497 0 0" fill="#831c36"/>
<path transform="matrix(1,0,0,-1,237.793,172.9522)" d="M0 0C-2.894-1.462-6.834-3.803-8.159-4.593-7.394-2.96-4.972 1.604-1.146 3.397 2.716 5.209 7.481 4.098 9.05 3.647 7.568 3.134 2.947 1.487 0 0" fill="#831c36"/>
<path transform="matrix(1,0,0,-1,183.4492,230.77449)" d="M0 0C2.253-.906 5.046-2.064 7.206-3.087L7.303-2.881 7.206-3.087C10.432-4.604 14.9-7.391 16.922-8.685 17.253-8.896 17.506-9.062 17.687-9.178 15.853-9.902 9.281-12.1 3.678-8.912-1.903-5.743-3.4-.159-3.726 1.47-3.535 1.394-3.23 1.275-2.825 1.118-2.115 .847-1.125 .453 0 0" fill="#831c36"/>
<path transform="matrix(1,0,0,-1,180.3398,228.65239)" d="M0 0C2.072 .482 8.412 1.657 13.097-.722 17.831-3.127 20.378-8.713 21.094-10.5 19.541-9.496 14.372-6.202 10.672-4.456 7.028-2.738 1.697-.652 0 0" fill="#831c36"/>
<path transform="matrix(1,0,0,-1,198.0488,222.17969)" d="M0 0C2.337-.65 5.241-1.504 7.5-2.273L7.575-2.063 7.5-2.273C10.872-3.432 15.622-5.707 17.772-6.772 18.125-6.948 18.397-7.084 18.588-7.178 16.844-8.101 10.557-11.013 4.635-8.459-1.262-5.92-3.361-.534-3.865 1.049-3.665 .996-3.353 .914-2.928 .802-2.196 .606-1.168 .324 0 0" fill="#831c36"/>
<path transform="matrix(1,0,0,-1,194.7246,220.4141)" d="M0 0C2.006 .706 8.181 2.569 13.097 .721 18.065-1.147 21.212-6.422 22.121-8.12 20.465-7.291 14.969-4.586 11.097-3.258 7.29-1.953 1.756-.464 0 0" fill="#831c36"/>
<path transform="matrix(1,0,0,-1,209.1465,213.00299)" d="M0 0C2.378-.206 5.34-.493 7.668-.831L7.703-.607 7.668-.831C11.137-1.334 16.144-2.668 18.418-3.308 18.79-3.409 19.074-3.489 19.277-3.549 17.756-4.762 12.209-8.712 6.021-7.327-.135-5.949-3.147-1.134-3.926 .31-3.726 .294-3.403 .273-2.979 .241-2.231 .186-1.187 .104 0 0" fill="#831c36"/>
<path transform="matrix(1,0,0,-1,205.6152,211.8955)" d="M0 0C1.815 1.054 7.44 3.976 12.524 3.085 17.672 2.182 21.672-2.335 22.859-3.813 21.103-3.313 15.3-1.701 11.318-1.125 7.402-.554 1.79-.128 0 0" fill="#831c36"/>
<path transform="matrix(1,0,0,-1,226.8145,188.5918)" d="M0 0C2.145 .506 4.819 1.105 6.941 1.478L6.9 1.699 6.941 1.478C10.106 2.037 14.788 2.308 16.919 2.408 17.247 2.422 17.5 2.435 17.691 2.44 16.56 .914 12.435-4.104 6.726-4.672 1.047-5.235-2.54-1.925-3.534-.863-3.355-.817-3.068-.747-2.675-.65-2.006-.482-1.068-.253 0 0" fill="#831c36"/>
<path transform="matrix(1,0,0,-1,233.6553,186.3301)" d="M0 0C-3.537-.624-8.509-1.848-10.165-2.262-8.737-.791-4.362 3.338 .275 4.019 4.969 4.706 9.356 1.937 10.719 .97 9.069 .9 3.628 .64 0 0" fill="#831c36"/>
<path transform="matrix(1,0,0,-1,232.1709,106.6187)" d="M0 0C.231 1.702 .544 3.82 .866 5.465L.644 5.507 .866 5.465C1.341 7.915 2.444 11.369 2.963 12.935 3.034 13.154 3.094 13.326 3.138 13.459 3.966 12.191 6.472 8.47 5.312 4.242 4.163 .043 .744-2.26-.362-2.788-.347-2.64-.318-2.421-.284-2.135-.216-1.601-.118-.852 0 0" fill="#831c36"/>
<path transform="matrix(1,0,0,-1,231.1494,108.96289)" d="M0 0C-.763 1.453-2.956 5.213-2.169 8.716-1.372 12.258 2.243 15.127 3.453 15.955 3.024 14.68 1.74 10.768 1.196 7.986 .672 5.277 .172 1.378 0 0" fill="#831c36"/>
<path transform="matrix(1,0,0,-1,226.543,92.63629)" d="M0 0C-.01 .564-.013 1.175-.013 1.799-.013 2.996 .003 4.238 .047 5.283L-.175 5.292 .047 5.283C.15 7.654 .675 11.006 .935 12.523 .966 12.713 .994 12.864 1.016 12.988 1.937 11.768 4.659 8.246 4.185 4.164 3.716 .125 .99-2.157 .047-2.708 .044-2.567 .037-2.349 .031-2.063 .021-1.546 .01-.822 0 0" fill="#831c36"/>
<path transform="matrix(1,0,0,-1,225.8457,90.76759)" d="M0 0C0-1.714 .028-3.325 .051-4.141-.85-2.729-3.277 .819-3.043 4.183-2.8 7.59 .028 10.413 1.025 11.253 .812 10.028 .176 6.217 .06 3.517 .016 2.455 0 1.202 0 0" fill="#831c36"/>
<path transform="matrix(1,0,0,-1,219.4707,82.36919)" d="M0 0C-.293 1.494-.644 3.356-.85 4.812L-1.068 4.781-.85 4.812C-1.162 6.983-1.25 10.116-1.274 11.538-1.277 11.707-1.281 11.843-1.281 11.955-.222 10.978 2.813 8.219 3.075 4.452 3.328 .726 1.275-1.777 .5-2.447 .473-2.32 .432-2.125 .379-1.871 .281-1.404 .147-.747 0 0" fill="#831c36"/>
<path transform="matrix(1,0,0,-1,217.5117,70.40779)" d="M0 0C.016-1.167 .084-4.711 .435-7.174 .771-9.52 1.45-12.833 1.719-14.111 .644-12.955-2.122-10.134-2.475-7.059-2.831-3.947-.775-.949 0 0" fill="#831c36"/>
<path transform="matrix(1,0,0,-1,211.2676,72.173389)" d="M0 0C-.347 1.378-.762 3.092-1.027 4.429L-1.215 4.392-1.027 4.429C-1.428 6.423-1.678 9.28-1.777 10.576-1.79 10.716-1.8 10.833-1.803 10.931-.766 10.113 2.138 8.315 2.575 4.895 3.007 1.514 1.27-1.483 .582-2.238 .551-2.121 .507-1.947 .447-1.724 .332-1.291 .179-.687 0 0" fill="#831c36"/>
<path transform="matrix(1,0,0,-1,208.8086,61.267595)" d="M0 0C.078-1.104 .338-4.282 .781-6.517 1.213-8.667 2.003-11.717 2.315-12.9 1.256-11.996-1.428-10.312-1.912-7.511-2.4-4.681-.675-1.078 0 0" fill="#831c36"/>
<path transform="matrix(1,0,0,-1,203.8457,65.203189)" d="M0 0C-.605 1.143-1.344 2.57-1.868 3.699L-2.031 3.622-1.868 3.699C-2.649 5.379-3.49 7.872-3.856 9.007-3.895 9.129-3.928 9.229-3.955 9.316-2.844 8.852 .098 7.997 1.213 5.061 2.319 2.163 1.437-.959 .988-1.839 .935-1.741 .859-1.604 .763-1.428 .572-1.072 .304-.572 0 0" fill="#831c36"/>
<path transform="matrix(1,0,0,-1,199.2871,56.099199)" d="M0 0C.317-.998 1.219-3.739 2.09-5.607 2.931-7.419 4.281-9.931 4.821-10.918 3.672-10.386 .952-9.574-.072-7.208-1.106-4.819-.372-1.177 0 0" fill="#831c36"/>
<path transform="matrix(1,0,0,-1,195.3496,59.01619)" d="M0 0C-.825 .959-1.841 2.163-2.585 3.129L-2.726 3.021-2.585 3.129C-3.694 4.566-5.038 6.768-5.635 7.772-5.697 7.877-5.75 7.966-5.794 8.042-4.626 7.84-1.641 7.655 .062 5.098 1.743 2.57 1.578-.597 1.34-1.541 1.271-1.459 1.171-1.347 1.043-1.2 .78-.901 .415-.48 0 0" fill="#831c36"/>
<path transform="matrix(1,0,0,-1,195.9824,60.69539)" d="M0 0C-1.218 .259-3.983 .45-5.471 2.484-6.974 4.539-7.062 8.168-6.965 9.381-6.442 8.494-4.989 6.074-3.758 4.479-2.562 2.935-.73 .83 0 0" fill="#831c36"/>
<path transform="matrix(1,0,0,-1,235.3271,164.85749)" d="M0 0C1.463 1.297 3.307 2.891 4.815 4.078H4.819C7.065 5.85 10.666 8.059 12.315 9.044 12.569 9.193 12.766 9.312 12.913 9.396 12.737 7.73 11.844 2.247 7.597-.604 3.366-3.441-1.053-2.516-2.381-2.142-2.259-2.028-2.068-1.854-1.821-1.632-1.368-1.219-.728-.645 0 0" fill="#831c36"/>
<path transform="matrix(1,0,0,-1,239.6836,160.17969)" d="M0 0C-2.51-1.976-5.869-5.006-7.003-6.038-6.557-4.288-5.057 .628-1.709 3.106 1.666 5.606 6.435 5.434 8.037 5.291 6.709 4.507 2.563 2.016 0 0" fill="#831c36"/>
<path transform="matrix(1,0,0,-1,238.2275,150.57619)" d="M0 0C1.091 1.594 2.472 3.567 3.628 5.068 5.35 7.302 8.243 10.264 9.578 11.598 9.774 11.796 9.931 11.951 10.05 12.068 10.247 10.385 10.594 4.81 7.231 1.074 3.891-2.639-.437-2.71-1.769-2.636-1.679-2.498-1.538-2.282-1.351-2.004-1.016-1.501-.544-.798 0 0" fill="#831c36"/>
<path transform="matrix(1,0,0,-1,241.2744,145.03319)" d="M0 0V0C-1.935-2.512-4.444-6.265-5.266-7.504-5.432-5.804-6.304-1.244-2.263 2.68 .696 5.548 4.881 6.691 6.372 6.959 5.29 5.89 1.959 2.539 0 0" fill="#831c36"/>
<path transform="matrix(1,0,0,-1,238.5928,136.0098)" d="M0 0C.669 1.771 1.531 3.972 2.291 5.677 3.422 8.218 5.531 11.773 6.516 13.383 6.666 13.631 6.784 13.825 6.872 13.968 7.51 12.506 9.315 7.589 6.947 3.2 4.585-1.17 .281-2.558-1.068-2.895-1.016-2.744-.931-2.516-.821-2.222-.622-1.666-.331-.886 0 0" fill="#831c36"/>
<path transform="matrix(1,0,0,-1,240.1963,130.0376)" d="M0 0C-1.281-2.871-2.81-7.051-3.297-8.397-3.906-6.914-5.976-3.069-2.969 1.704-.778 5.187 3.091 7.495 4.516 8.198 3.703 6.876 1.281 2.872 0 0" fill="#831c36"/>
<path transform="matrix(1,0,0,-1,236.8145,119.8472)" d="M0 0C.385 1.834 .897 4.117 1.379 5.896L1.16 5.955 1.379 5.896C2.101 8.547 3.619 12.314 4.328 14.023 4.435 14.281 4.522 14.484 4.585 14.633 5.416 13.25 7.863 8.577 6.219 3.953 4.582-.647 .645-2.512-.612-3.001-.581-2.844-.534-2.608-.475-2.299-.359-1.723-.193-.917 0 0" fill="#831c36"/>
<path transform="matrix(1,0,0,-1,235.5215,122.458499)" d="M0 0C-.872 1.435-3.95 5.275-1.744 10.364-.129 14.093 3.787 16.588 5.128 17.385 4.55 16.012 2.777 11.721 1.956 8.705 1.141 5.714 .274 1.396 0 0" fill="#831c36"/>
<path transform="matrix(1,0,0,-1,219.4082,201.13289)" d="M0 0C1.785 .067 3.916 .127 5.822 .127 6.319 .127 6.807 .121 7.26 .111L7.266 .338 7.26 .111C10.547 .05 15.291-.603 17.444-.926 17.772-.973 18.028-1.014 18.219-1.044 16.763-2.341 11.525-6.551 5.685-5.993-.118-5.437-2.978-1.416-3.734-.163-3.547-.156-3.237-.139-2.821-.12-2.112-.085-1.125-.04 0 0" fill="#831c36"/>
<path transform="matrix(1,0,0,-1,225.2715,200.21199)" d="M0 0C-3.488 0-7.679-.193-9.207-.271-7.453 .914-2.169 4.186 2.625 3.95 7.478 3.716 11.259 .07 12.402-1.158 10.746-.903 5.237-.09 1.459-.013 .993-.003 .503 0 0 0" fill="#831c36"/>
<path transform="matrix(1,0,0,-1,188.0469,60.242189)" d="M0 0C-1.057 .45-2.373 1.026-3.385 1.53-4.897 2.28-7.022 3.66-7.984 4.301-8.107 4.381-8.201 4.445-8.276 4.498-7.264 4.837-4.238 5.439-1.704 3.934 .799 2.445 1.462 .194 1.668-.695 1.58-.66 1.468-.613 1.327-.555 .995-.418 .53-.224 0 0" fill="#831c36"/>
<path transform="matrix(1,0,0,-1,189.3145,61.457094)" d="M0 0C-1.116-.367-4.087-1.322-6.605 .107-9.346 1.663-9.612 4.133-9.799 5.125-8.978 4.572-6.619 3.017-4.918 2.172-3.262 1.352-.891 .366 0 0" fill="#831c36"/>
<path transform="matrix(1,0,0,-1,156.5527,211.0118)" d="M0 0C-.463-2.355-1.529-7.506-2.641-10.844L-2.426-10.915-2.641-10.844C-3.385-13.082-4.451-15.863-5.335-18.075-5.775-19.187-6.169-20.15-6.453-20.84-6.609-21.228-6.729-21.515-6.81-21.703-7.703-20.332-10.401-15.91-8.854-9.729-7.304-3.515-1.551 .116 .172 .897 .134 .687 .078 .391 0 0" fill="#831c36"/>
<path transform="matrix(1,0,0,-1,157.4902,210.48929)" d="M0 0C.847-1.782 3.665-7.402 2.155-12.447 .658-17.44-5.082-21.226-6.882-22.303-6.207-20.673-4.062-15.446-2.805-11.66-1.531-7.829-.348-1.819 0 0" fill="#831c36"/>
<g>
<g clip-path="url(#clip_2)">
<path transform="matrix(1,0,0,-1,108.0645,140.23)" d="M0 0C-.224-.261-.244-.388-.112-.584 .124-.362 .156-.204 0 0M49.193-5.738C49.185-5.844 49.16-5.944 49.172-6.042 49.234-6.478 49.288-6.918 49.382-7.347 49.531-8.046 49.743-8.729 50.069-9.37 50.19-9.61 50.341-9.84 50.51-10.05 50.606-10.172 50.754-10.263 50.895-10.331 51.085-10.417 51.185-10.35 51.21-10.14 51.223-10.031 51.213-9.917 51.185-9.81 51.104-9.49 51.094-9.175 51.216-8.862 51.272-8.716 51.284-8.562 51.344-8.419 51.453-8.159 51.419-7.909 51.326-7.653 51.094-7.012 50.737-6.468 50.169-6.075 49.887-5.877 49.578-5.75 49.193-5.738M-2.372-12C-2.243-11.884-2.228-11.781-2.284-11.638-2.384-11.377-2.46-11.11-2.545-10.843-2.734-10.25-2.898-9.653-3.114-9.073-3.234-8.75-3.419-8.447-3.607-8.156-3.704-8.005-3.859-7.875-4.019-7.785-4.304-7.622-4.375-7.635-4.571-7.9-4.665-8.026-4.736-8.178-4.789-8.329-4.965-8.829-4.989-9.346-4.93-9.866-4.876-10.375-4.651-10.775-4.207-11.063-3.751-11.36-3.295-11.657-2.79-11.865-2.652-11.921-2.505-11.959-2.372-12M82.191-15.675C82.194-15.663 82.197-15.65 82.203-15.637 82.244-15.637 82.288-15.64 82.328-15.637 82.582-15.61 82.669-15.443 82.538-15.225 82.494-15.156 82.435-15.09 82.375-15.032 81.825-14.462 81.271-13.896 80.725-13.326 79.991-12.562 79.25-11.812 78.322-11.278 78.231-11.228 78.153-11.134 78.1-11.043 77.859-10.681 77.629-10.313 77.409-9.94 77.332-9.81 77.231-9.744 77.094-9.709 76.895-9.663 76.7-9.606 76.5-9.556 76.269-9.5 76.094-9.625 76.104-9.87 76.109-9.99 76.153-10.12 76.209-10.228 76.507-10.803 76.825-11.365 77.112-11.948 77.278-12.292 77.506-12.578 77.785-12.832 78.429-13.418 79.113-13.953 79.84-14.428 80.395-14.793 80.967-15.128 81.547-15.453 81.741-15.563 81.973-15.603 82.191-15.675M11.988-9.625C11.908-9.84 11.953-10.053 11.981-10.256 12.138-11.322 12.378-12.365 12.702-13.388 12.77-13.603 12.87-13.819 13.002-14.002 13.531-14.737 14.143-15.4 14.852-15.969 15.086-16.16 15.352-16.323 15.619-16.469 15.753-16.546 15.922-16.566 16.08-16.597 16.192-16.625 16.269-16.572 16.327-16.466 16.503-16.154 16.544-15.828 16.359-15.519 16.221-15.291 16.045-15.073 15.851-14.89 15.589-14.646 15.292-14.447 15.013-14.222 14.828-14.073 14.643-13.919 14.463-13.768 14.354-13.672 14.301-13.559 14.305-13.409 14.308-13.188 14.29-12.965 14.284-12.745 14.261-11.86 13.934-11.087 13.372-10.413 13.208-10.213 12.994-10.05 12.778-9.9 12.55-9.734 12.282-9.643 11.988-9.625M56.147-8.744C56.084-8.744 56.043-8.738 55.997-8.744 55.604-8.802 55.469-9.09 55.685-9.419 55.781-9.569 55.884-9.716 55.994-9.854 56.997-11.113 57.994-12.375 59.009-13.622 59.4-14.103 59.828-14.556 60.238-15.019 60.52-15.34 60.807-15.219 60.984-14.972 61.054-14.875 61.125-14.779 61.199-14.685 61.446-14.365 61.772-14.244 62.169-14.329 62.341-14.366 62.516-14.417 62.678-14.488 62.903-14.582 63.121-14.7 63.338-14.816 63.42-14.859 63.513-14.893 63.571-14.816 63.666-14.7 63.744-14.556 63.691-14.4 63.538-13.947 63.288-13.565 62.913-13.259 62.51-12.928 62.041-12.775 61.545-12.668 61.007-12.55 60.463-12.444 59.929-12.309 59.494-12.198 59.147-11.938 58.9-11.56 58.754-11.333 58.618-11.094 58.476-10.863 58.278-10.537 58.091-10.201 57.882-9.88 57.679-9.573 57.425-9.31 57.122-9.096 56.824-8.885 56.491-8.763 56.147-8.744M39.859 4.486C39.848 4.712 39.916 4.911 40.041 5.091 40.182 5.295 40.363 5.362 40.598 5.277 40.754 5.219 40.912 5.143 41.044 5.041 41.318 4.824 41.575 4.589 41.838 4.357 42.154 4.075 42.46 3.776 42.788 3.507 42.957 3.369 43.153 3.251 43.354 3.171 43.793 2.996 44.219 3.298 44.21 3.772 44.203 3.938 44.169 4.116 44.098 4.266 43.74 5.047 43.234 5.709 42.46 6.13 41.838 6.469 41.172 6.71 40.494 6.91 40.016 7.052 39.535 7.139 39.038 6.984 38.84 6.92 38.645 6.974 38.49 7.11 38.293 7.285 38.09 7.461 37.935 7.669 37.663 8.029 37.41 8.403 37.176 8.789 36.855 9.32 36.569 9.874 36.244 10.4 35.976 10.834 35.691 11.261 35.373 11.661 35.194 11.89 34.956 12.089 34.709 12.245 34.359 12.461 34.353 12.45 33.977 12.198 33.957 12.183 33.936 12.166 33.918 12.148 33.739 11.979 33.697 11.812 33.821 11.6 33.907 11.453 34.009 11.313 34.127 11.193 34.436 10.877 34.583 10.494 34.603 10.065 34.629 9.537 34.8 9.07 35.138 8.663 35.208 8.577 35.265 8.479 35.338 8.396 35.882 7.766 36.429 7.136 36.976 6.506 37.385 6.037 37.787 5.562 38.2 5.101 38.479 4.792 38.609 4.442 38.598 4.029 38.59 3.648 38.726 3.323 38.973 3.026 39.66 2.192 40.373 1.381 41.147 .625 41.362 .416 41.588 .222 41.815 .03 41.912-.053 42.02-.124 42.135-.182 42.288-.264 42.369-.222 42.397-.042 42.41 .058 42.426 .165 42.402 .261 42.348 .525 42.306 .805 42.188 1.042 42.016 1.382 41.806 1.707 41.569 2.007 41.247 2.421 40.875 2.802 40.538 3.206 40.365 3.415 40.21 3.639 40.06 3.867 39.938 4.053 39.863 4.261 39.859 4.486M-.153-1.197C-.239-1.322-.306-1.408-.359-1.499-1.006-2.603-1.564-3.75-2.011-4.948-2.093-5.168-2.14-5.407-2.205-5.637-2.251-5.807-2.202-5.921-2.04-6.015-1.717-6.204-1.408-6.416-1.087-6.606-.899-6.718-.744-6.856-.611-7.028 .194-8.076 1.094-9.037 2.104-9.896 2.296-10.057 2.442-10.25 2.569-10.466 2.858-10.957 3.14-11.454 3.442-11.935 3.66-12.281 3.901-12.612 4.157-12.928 4.3-13.106 4.48-13.259 4.668-13.385 4.78-13.462 4.939-13.498 5.074-13.5 5.283-13.502 5.376-13.4 5.359-13.191 5.344-12.991 5.303-12.785 5.236-12.597 5.15-12.347 5.033-12.109 4.917-11.875 4.783-11.604 4.706-11.322 4.659-11.021 4.569-10.417 4.459-9.813 4.369-9.208 4.347-9.084 4.304-8.982 4.212-8.896 3.903-8.606 3.602-8.306 3.281-8.029 3.163-7.925 3.001-7.865 2.854-7.812 2.561-7.706 2.252-7.708 1.942-7.718 1.679-7.722 1.484-7.612 1.347-7.391 1.147-7.072 1.011-6.731 .973-6.344 .911-5.677 .95-5.016 1.052-4.357 1.114-3.957 1.223-3.56 1.344-3.173 1.494-2.688 1.867-2.591 2.322-2.686 2.569-2.739 2.778-2.87 2.972-3.026 3.295-3.284 3.554-3.599 3.792-3.931 4.204-4.5 4.554-5.104 4.854-5.737 5.341-6.755 5.809-7.788 6.285-8.813 6.397-9.052 6.508-9.293 6.647-9.516 6.741-9.663 6.867-9.803 7.011-9.9 7.352-10.116 7.755-9.873 7.772-9.469 7.781-9.24 7.737-9.035 7.634-8.832 7.414-8.391 7.205-7.944 7-7.495 6.855-7.185 6.758-6.859 6.717-6.518 6.665-6.104 6.6-5.691 6.55-5.278 6.532-5.13 6.473-5.031 6.35-4.944 6.041-4.734 5.738-4.513 5.438-4.287 5.309-4.193 5.189-4.083 5.083-3.959 4.671-3.485 4.272-2.998 3.856-2.523 3.739-2.389 3.678-2.241 3.651-2.07 3.589-1.696 3.801-1.43 4.183-1.433 4.359-1.435 4.536-1.483 4.712-1.501 4.839-1.514 4.968-1.53 5.091-1.514 5.547-1.453 6.006-1.399 6.455-1.308 6.773-1.244 7.062-1.301 7.352-1.411 7.799-1.578 8.178-1.849 8.525-2.168 8.839-2.455 9.148-2.75 9.448-3.049 9.687-3.291 9.969-3.458 10.283-3.576 10.486-3.65 10.636-3.557 10.604-3.346 10.577-3.185 10.512-3.021 10.43-2.874 10.321-2.682 10.177-2.514 10.054-2.328 9.551-1.558 8.86-1.005 8.028-.625 7.496-.382 6.932-.256 6.341-.307 6.044-.334 5.75-.383 5.456-.434 4.868-.534 4.277-.592 3.678-.56 3.233-.536 2.872-.379 2.602-.017 2.504 .111 2.396 .235 2.272 .339 1.981 .589 1.805 .563 1.582 .255 1.434 .055 1.37-.173 1.382-.417 1.399-.748 1.434-1.079 1.455-1.409 1.47-1.631 1.467-1.856 1.361-2.059 1.102-2.552 .852-2.629 .42-2.2 .285-2.064 .206-1.875 .108-1.706 .021-1.552-.053-1.391-.153-1.197M-26.784-18.938C-26.769-18.958-26.751-18.982-26.734-19.002-26.654-18.988-26.575-18.979-26.499-18.958-25.949-18.802-25.402-18.638-24.853-18.491-24.653-18.438-24.491-18.344-24.364-18.188-24.161-17.938-23.961-17.684-23.767-17.424-23.482-17.042-23.206-16.651-22.915-16.275-22.715-16.019-22.483-15.796-22.203-15.623-21.992-15.497-21.769-15.437-21.519-15.469-21.357-15.49-21.263-15.566-21.209-15.725-21.075-16.134-21.175-16.497-21.462-16.784-21.818-17.14-22.003-17.557-22.071-18.042-22.075-18.075-22.092-18.107-22.095-18.138-22.122-18.406-22.269-18.604-22.477-18.748-22.786-18.958-23.094-19.171-23.427-19.344-23.8-19.544-24.2-19.694-24.584-19.873-24.708-19.932-24.828-20-24.931-20.084-25.035-20.175-25.052-20.329-24.976-20.381-24.808-20.49-24.644-20.625-24.423-20.609-24.273-20.596-24.121-20.573-23.967-20.559-23.247-20.485-22.533-20.349-21.806-20.378-21.272-20.4-20.734-20.428-20.199-20.466-19.74-20.502-19.285-20.526-18.826-20.45-18.364-20.375-17.897-20.34-17.436-20.472-17.367-20.49-17.3-20.497-17.232-20.5-17.173-20.502-17.112-20.502-17.059-20.485-16.762-20.393-16.622-20.166-16.671-19.832-16.709-19.579-16.777-19.332-16.83-19.082-16.874-18.859-16.912-18.631-16.83-18.377-16.277-18.332-15.722-18.292-15.146-18.248-15.113-18.372-15.072-18.474-15.063-18.579-15.025-18.958-15.004-19.344-14.962-19.722-14.919-20.156-14.808-20.265-14.381-20.329-14.364-20.332-14.345-20.332-14.328-20.334-13.105-20.487-11.882-20.428-10.66-20.309-10.509-20.293-10.365-20.247-10.209-20.215-10.23-20.022-10.321-19.896-10.433-19.796-10.626-19.62-10.824-19.441-11.045-19.294-11.467-19.012-11.912-18.755-12.344-18.485-12.791-18.204-13.241-17.931-13.673-17.627-13.928-17.444-14.158-17.224-14.381-17.003-14.563-16.822-14.69-16.597-14.734-16.337-14.822-15.826-14.487-15.463-13.975-15.513-13.678-15.546-13.408-15.654-13.181-15.84-12.979-16.006-12.794-16.2-12.608-16.384-12.435-16.56-12.279-16.75-12.106-16.927-11.824-17.213-11.489-17.401-11.092-17.487-9.625-17.807-8.146-17.924-6.653-17.718-6.126-17.644-5.617-17.531-5.197-17.16-4.898-16.897-4.536-16.887-4.16-16.984-3.554-17.14-3.095-17.503-2.702-17.968-2.575-18.115-2.449-18.281-2.29-18.38-1.7-18.752-1.103-19.115-.437-19.347-.186-19.435 .073-19.502 .338-19.462 .494-19.435 .65-19.373 .785-19.297 .967-19.198 1.017-19.012 .761-18.881 .135-18.559-.479-18.208-1.097-17.862-1.211-17.794-1.323-17.709-1.417-17.615-1.94-17.081-2.46-16.541-2.975-15.994-3.066-15.9-3.142-15.781-3.199-15.66-3.416-15.178-3.636-14.7-3.825-14.206-3.913-13.972-4.045-13.873-4.28-13.853-4.727-13.818-5.142-13.659-5.553-13.495-6.858-12.974-8.158-12.448-9.475-11.954-9.919-11.788-10.292-11.587-10.472-11.125-10.475-11.116-10.48-11.11-10.486-11.1-10.63-10.866-10.839-10.734-11.112-10.721-11.335-10.713-11.556-10.716-11.777-10.719-11.941-10.721-12.05-10.81-12.1-10.963-12.124-11.037-12.147-11.11-12.159-11.184-12.271-11.978-12.214-12.765-12.026-13.542-11.997-13.656-11.912-13.768-11.824-13.853-11.592-14.076-11.335-14.279-11.106-14.505-10.977-14.635-10.859-14.787-10.769-14.95-10.598-15.252-10.686-15.463-11.006-15.603-11.303-15.731-11.6-15.722-11.9-15.603-12.47-15.378-12.958-15.029-13.417-14.625-13.72-14.359-13.884-14.022-13.937-13.631-13.967-13.416-13.997-13.191-13.997-12.974-13.997-12.503-13.987-12.035-13.964-11.568-13.931-10.875-13.97-10.193-14.14-9.516-14.317-8.823-14.481-8.128-14.625-7.428-14.74-6.877-14.757-6.318-14.602-5.76-14.49-5.357-14.181-5.143-13.775-5.256-13.54-5.322-13.311-5.424-13.1-5.55-12.788-5.737-12.494-5.959-12.191-6.162-11.886-6.365-11.585-6.578-11.269-6.759-11.109-6.854-10.927-6.916-10.745-6.951-10.457-7.009-10.266-6.894-10.118-6.627-9.978-6.372-9.995-6.135-10.203-5.927-10.336-5.794-10.486-5.677-10.648-5.587-10.959-5.413-11.289-5.266-11.603-5.1-11.867-4.963-12.136-4.831-12.382-4.663-12.535-4.563-12.67-4.419-12.77-4.269-12.941-4.006-12.896-3.893-12.603-3.806-12.064-3.64-11.527-3.479-10.983-3.341-9.869-3.055-8.751-2.791-7.614-2.624-7.138-2.554-6.973-2.635-6.75-3.059-6.685-3.179-6.634-3.305-6.57-3.425-6.521-3.526-6.47-3.625-6.406-3.713-6.186-4.026-5.779-4.083-5.492-3.831-5.371-3.731-5.273-3.593-5.197-3.456-5.097-3.276-5.03-3.083-4.942-2.897-4.859-2.72-4.774-2.544-4.677-2.375-4.606-2.247-4.492-2.153-4.345-2.114-4.142-2.058-4.006-2.116-3.942-2.313-3.904-2.432-3.883-2.562-3.875-2.686-3.854-3.014-3.939-3.329-4.033-3.637-4.056-3.713-4.078-3.793-4.118-3.928-3.992-3.87-3.916-3.84-3.845-3.802-3.366-3.526-3.104-3.085-2.966-2.569-2.866-2.208-2.787-1.842-2.695-1.478-2.517-.769-2.161-.179-1.535 .234-1.343 .359-1.167 .51-1.003 .669-.732 .931-.561 1.245-.55 1.638-.544 1.866-.509 2.094-.482 2.322-.459 2.541-.433 2.758-.403 2.977-.027 3.077 .314 3.045 .617 2.831 .805 2.701 .97 2.538 1.144 2.388 1.278 2.269 1.402 2.141 1.546 2.034 1.767 1.869 2.002 1.875 2.234 2.024 2.596 2.256 2.678 2.602 2.596 2.984 2.522 3.313 2.401 3.635 2.288 3.954 2.164 4.298 2.008 4.632 1.894 4.979 1.829 5.167 1.802 5.375 1.793 5.578 1.778 5.843 1.922 6.028 2.161 6.14 2.331 6.219 2.513 6.258 2.705 6.235 2.966 6.203 3.228 6.16 3.492 6.148 3.678 6.141 3.825 6.072 3.937 5.937 4.21 5.602 4.5 5.277 4.742 4.919 5.059 4.445 5.327 3.939 5.626 3.455 5.909 2.999 6.191 2.542 6.5 2.105 6.897 1.539 7.411 1.095 8.022 .769 8.384 .577 8.749 .394 9.11 .2 9.604-.065 10.106-.319 10.58-.619 10.894-.815 11.167-1.08 11.45-1.325 11.629-1.483 11.709-1.693 11.714-1.937 11.721-2.115 11.759-2.293 11.768-2.47 11.78-2.658 11.841-2.812 11.973-2.951 12.097-3.076 12.2-3.226 12.32-3.359 12.417-3.463 12.458-3.583 12.479-3.725 12.541-4.169 12.605-4.616 12.679-5.06 12.697-5.167 12.741-5.275 12.8-5.363 13.099-5.797 13.417-6.218 13.705-6.662 13.914-6.988 14.181-7.206 14.555-7.309 14.822-7.381 15.051-7.526 15.254-7.715 15.448-7.894 15.642-8.076 15.848-8.238 16.242-8.549 16.639-8.859 17.053-9.14 17.238-9.266 17.461-9.346 17.68-9.419 17.85-9.482 18.032-9.472 18.194-9.36 18.297-9.287 18.344-9.197 18.278-9.079 18.203-8.937 18.132-8.785 18.023-8.669 17.765-8.4 17.503-8.131 17.212-7.894 16.7-7.474 16.18-7.056 15.636-6.677 14.831-6.115 14.311-5.372 14.042-4.437 14.002-4.296 13.955-4.16 13.908-4.022 13.761-3.579 13.617-3.135 13.458-2.694 13.261-2.15 12.952-1.666 12.523-1.281 12.118-.918 11.691-.577 11.253-.256 10.792 .08 10.315 .397 9.827 .693 9.125 1.117 8.608 1.687 8.296 2.449 8.143 2.821 7.919 3.156 7.628 3.438 7.02 4.029 6.564 4.716 6.297 5.523 6.18 5.873 5.941 6.124 5.641 6.312 5.406 6.46 5.156 6.594 4.897 6.697 4.233 6.959 3.53 7.053 2.825 7.102 2.034 7.16 1.244 7.194 .453 7.242 .332 7.25 .227 7.227 .153 7.139 .038 6.992-.074 6.841-.162 6.678-.282 6.457-.433 6.272-.623 6.106-1.156 5.643-1.69 5.181-2.202 4.692-2.928 3.995-3.492 3.18-3.878 2.243-4.039 1.851-4.212 1.462-4.383 1.072-4.622 .525-4.872-.014-5.207-.511-5.42-.831-5.665-1.127-5.985-1.348-6.074-1.409-6.179-1.461-6.282-1.478-7.003-1.603-7.725-1.729-8.449-1.834-9.478-1.981-10.509-2.103-11.536-2.245-12.271-2.347-12.993-2.497-13.693-2.75-14.702-3.117-15.489-3.747-16.004-4.697-16.171-5-16.336-5.31-16.492-5.625-16.806-6.268-17.183-6.875-17.626-7.438-17.841-7.712-18.044-7.997-18.247-8.282-18.464-8.588-18.634-8.917-18.764-9.272-19.058-10.081-19.373-10.88-19.664-11.688-19.761-11.954-19.905-12.174-20.114-12.357-20.342-12.562-20.575-12.762-20.787-12.982-20.928-13.125-21.054-13.294-21.148-13.471-21.31-13.772-21.263-14.065-21.022-14.315-20.945-14.393-20.866-14.469-20.784-14.546-20.434-14.87-20.614-15.284-20.978-15.453-21.092-15.505-21.151-15.481-21.186-15.357-21.231-15.203-21.284-15.046-21.301-14.887-21.331-14.616-21.495-14.509-21.736-14.469-21.795-14.458-21.854-14.456-21.913-14.443-22.08-14.412-22.248-14.378-22.412-14.34-22.548-14.309-22.6-14.216-22.6-14.076-22.6-13.834-22.492-13.682-22.274-13.579-21.91-13.4-21.889-13.356-21.925-12.968-21.989-12.245-22.062-12.338-21.551-11.756-21.466-11.66-21.401-11.521-21.383-11.394-21.351-11.147-21.481-11.05-21.722-11.11-21.962-11.167-22.168-11.292-22.327-11.471-22.598-11.775-22.868-12.084-23.097-12.421-23.597-13.153-23.982-13.953-24.364-14.752-24.693-15.443-25.02-16.137-25.347-16.828-25.555-17.271-25.82-17.671-26.167-18.021-26.319-18.181-26.458-18.356-26.584-18.538-26.666-18.659-26.719-18.802-26.784-18.938M87.764-13.369C87.717-13.329 87.647-13.265 87.572-13.208 87.106-12.853 86.645-12.488 86.166-12.151 85.713-11.833 85.319-11.468 85.057-10.974 85.025-10.917 84.979-10.863 84.946-10.803 84.822-10.573 84.647-10.387 84.4-10.291 84.01-10.134 83.819-9.86 83.813-9.44 83.813-9.209 83.713-9.013 83.569-8.837 83.35-8.565 83.149-8.276 82.904-8.029 82.395-7.505 81.862-7 81.332-6.498 80.757-5.951 80.178-5.404 79.766-4.719 79.525-4.316 79.19-4.14 78.748-4.099 78.682-4.093 78.613-4.081 78.543-4.078 78.152-4.053 77.791-3.953 77.51-3.656 77.469-3.613 77.413-3.583 77.369-3.543 77.256-3.434 77.116-3.387 76.959-3.365 76.311-3.258 75.663-3.176 75.057-2.893 74.313-2.55 73.598-2.157 72.936-1.671 72.795-1.567 72.66-1.446 72.538-1.317 71.691-.417 70.841 .478 70.012 1.391 69.472 1.984 68.895 2.541 68.275 3.046 67.394 3.766 66.597 4.565 65.922 5.487 65.855 5.583 65.781 5.678 65.699 5.766 65.351 6.147 65.006 6.537 64.635 6.9 64.321 7.205 63.944 7.429 63.527 7.569 63.02 7.736 62.513 7.913 61.994 8.05 61.366 8.217 60.726 8.303 60.072 8.233 59.741 8.197 59.45 8.094 59.216 7.833 58.811 7.374 58.382 6.936 57.988 6.467 57.074 5.377 56.176 4.275 55.272 3.177 54.804 2.609 54.307 2.071 53.691 1.664 53.522 1.553 53.335 1.462 53.141 1.402 52.835 1.311 52.612 1.433 52.479 1.726 52.344 2.017 52.348 2.314 52.519 2.581 52.672 2.831 52.857 3.07 53.057 3.289 53.291 3.547 53.559 3.775 53.803 4.025 54.009 4.238 54.216 4.454 54.402 4.685 54.513 4.821 54.603 4.982 54.676 5.143 54.766 5.339 54.719 5.409 54.507 5.475 54.272 5.545 54.044 5.514 53.838 5.408 53.598 5.283 53.362 5.141 53.147 4.975 52.811 4.712 52.504 4.419 52.175 4.151 52.01 4.017 51.824 3.908 51.641 3.8 51.521 3.728 51.391 3.719 51.247 3.761 50.678 3.93 50.094 4.057 49.498 4.109 49.382 4.119 49.243 4.177 49.156 4.256 48.842 4.553 48.516 4.845 48.247 5.181 47.902 5.612 47.582 6.068 47.297 6.541 46.618 7.669 45.844 8.722 44.966 9.702 44.931 9.74 44.897 9.778 44.866 9.819 44.426 10.423 43.889 10.924 43.231 11.291 43.144 11.337 43.069 11.414 43.004 11.492 42.35 12.307 41.709 13.136 41.035 13.939 40.123 15.03 39.191 16.105 38.46 17.331 38.429 17.383 38.394 17.43 38.356 17.479 37.837 18.25 37.138 18.798 36.288 19.164 35.668 19.43 35.021 19.607 34.368 19.777 33.612 19.977 32.854 20.17 32.104 20.396 31.358 20.623 30.714 21.033 30.176 21.602 29.917 21.874 29.656 22.142 29.411 22.425 28.756 23.187 28.116 23.959 27.457 24.719 26.813 25.459 26.134 26.165 25.352 26.761 24.84 27.15 24.293 27.477 23.676 27.667 23.191 27.815 22.715 27.857 22.227 27.664 21.942 27.552 21.724 27.392 21.58 27.12 21.363 26.702 21.202 26.263 21.119 25.799 20.972 24.937 20.828 24.07 20.719 23.202 20.566 22.002 20.202 20.883 19.561 19.852 19.241 19.341 18.932 18.82 18.624 18.302 18.27 17.711 18.015 17.087 17.95 16.392 17.9 15.885 17.577 15.567 17.15 15.342 16.944 15.231 16.736 15.251 16.547 15.391 16.427 15.482 16.304 15.577 16.195 15.683 15.883 15.982 15.833 16.227 16.007 16.627 16.089 16.821 16.186 17.014 16.292 17.196 16.5 17.547 16.7 17.906 16.939 18.236 17.312 18.753 17.591 19.311 17.744 19.929 17.785 20.092 17.876 20.218 17.997 20.333 18.105 20.438 18.217 20.55 18.297 20.678 18.44 20.903 18.4 21.07 18.173 21.281 18.011 21.433 17.908 21.444 17.683 21.26 17.471 21.092 17.268 20.905 17.094 20.697 16.095 19.516 15.266 18.22 14.551 16.847 14.493 16.736 14.455 16.612 14.419 16.491 14.213 15.736 14.011 14.979 13.802 14.226 13.767 14.094 13.719 13.967 13.661 13.844 13.267 13.032 12.874 12.22 12.477 11.411 12.42 11.299 12.35 11.181 12.253 11.106 11.847 10.789 11.594 10.386 11.506 9.876 11.479 9.711 11.391 9.575 11.265 9.467 11.027 9.26 10.8 9.041 10.544 8.858 9.889 8.384 9.219 7.931 8.561 7.461 8.311 7.283 8.075 7.088 7.843 6.886 7.611 6.683 7.555 6.417 7.611 6.119 7.661 5.862 7.788 5.643 7.942 5.437 8.166 5.142 8.431 4.889 8.731 4.679 9.125 4.404 9.045 4.334 9.522 4.679 9.807 4.889 10.069 5.141 10.307 5.405 10.868 6.023 11.397 6.669 11.956 7.288 12.355 7.729 12.77 8.158 13.202 8.568 13.391 8.746 13.625 8.884 13.858 9.003 13.993 9.072 14.169 9.094 14.325 9.092 14.54 9.086 14.604 9.008 14.572 8.796 14.536 8.571 14.484 8.343 14.401 8.131 14.046 7.188 13.552 6.314 13.008 5.467 12.87 5.25 12.705 5.086 12.455 5.006 12.327 4.966 12.208 4.889 12.08 4.846 11.833 4.764 11.68 4.597 11.588 4.362 11.28 3.563 11.139 2.742 11.25 1.886 11.297 1.503 11.497 1.217 11.83 1.033 11.994 .942 12.173 .882 12.35 .82 12.644 .714 12.947 .624 13.244 .519 13.405 .462 13.538 .359 13.649 .222 13.843-.016 14.038-.254 14.249-.475 14.705-.943 14.995-1.505 15.207-2.115 15.29-2.347 15.366-2.583 15.445-2.814 15.668-3.45 15.88-4.083 16.116-4.713 16.424-5.534 16.986-6.13 17.788-6.488 18.291-6.715 18.802-6.927 19.308-7.147 19.769-7.347 20.234-7.542 20.689-7.75 21.048-7.916 21.363-8.143 21.642-8.425 22.045-8.829 22.471-9.209 22.871-9.616 23.35-10.104 23.885-10.522 24.455-10.901 24.778-11.119 25.084-11.369 25.381-11.619 25.502-11.721 25.596-11.862 25.675-12 25.916-12.431 26.161-12.862 26.378-13.302 26.519-13.588 26.722-13.799 26.983-13.975 28.177-14.782 29.417-15.51 30.722-16.116 31.017-16.253 31.319-16.366 31.625-16.471 31.792-16.528 31.972-16.566 32.148-16.575 32.431-16.59 32.557-16.39 32.428-16.137 32.354-15.997 32.254-15.86 32.136-15.753 31.872-15.513 31.602-15.276 31.308-15.073 30.749-14.687 30.167-14.329 29.6-13.956 29.388-13.815 29.176-13.668 28.986-13.498 28.533-13.094 28.342-12.591 28.462-11.984 28.503-11.768 28.527-11.544 28.536-11.325 28.544-11.104 28.454-10.934 28.239-10.833 28.092-10.769 27.957-10.677 27.809-10.61 27.11-10.293 26.501-9.854 25.969-9.306 25.792-9.125 25.575-8.979 25.361-8.846 24.887-8.559 24.402-8.292 23.926-8.012 23.415-7.712 22.953-7.344 22.604-6.865 22.28-6.427 21.986-5.965 21.692-5.51 21.619-5.397 21.575-5.263 21.545-5.13 21.495-4.913 21.562-4.728 21.75-4.593 21.895-4.487 22.057-4.457 22.233-4.474 22.506-4.5 22.729-4.64 22.936-4.81 23.344-5.147 23.718-5.515 23.979-5.987 24.261-6.498 24.675-6.881 25.199-7.151 25.731-7.424 26.251-7.715 26.783-7.979 27.95-8.562 29.141-9.087 30.391-9.463 30.905-9.62 31.425-9.76 31.966-9.766 32.219-9.766 32.478-9.737 32.722-9.675 32.957-9.616 33.133-9.453 33.2-9.182 33.127-9.14 33.065-9.099 32.999-9.063 31.852-8.465 30.705-7.865 29.597-7.201 28.765-6.701 27.921-6.221 27.095-5.709 26.566-5.384 26.089-4.984 25.631-4.557 25.234-4.19 24.996-3.747 24.897-3.22 24.817-2.809 24.731-2.403 24.647-1.994 24.567-1.623 24.408-1.295 24.161-.997 23.191 .188 22.233 1.386 21.266 2.574 21.157 2.706 21.036 2.827 20.907 2.936 20.199 3.525 19.502 4.127 18.894 4.819 18.579 5.175 18.293 5.561 18.026 5.953 17.897 6.146 17.803 6.378 17.75 6.604 17.65 7.023 17.832 7.281 18.25 7.366 18.72 7.46 19.161 7.357 19.587 7.156 19.69 7.107 19.726 7.027 19.749 6.917 19.866 6.297 20.108 5.727 20.493 5.226 20.675 4.986 20.901 4.772 21.128 4.569 21.313 4.404 21.548 4.319 21.798 4.271 21.954 4.239 22.069 4.264 22.18 4.391 22.413 4.652 22.663 4.896 22.9 5.154 22.991 5.252 23.094 5.308 23.223 5.339 23.72 5.455 24.141 5.314 24.467 4.936 24.658 4.711 24.887 4.542 25.134 4.392 25.272 4.307 25.405 4.213 25.542 4.132 25.655 4.067 25.716 3.99 25.731 3.854 25.769 3.55 25.808 3.244 25.884 2.949 26.072 2.225 26.278 1.503 26.489 .787 26.66 .206 26.866-.361 27.145-.899 27.277-1.153 27.465-1.337 27.724-1.45 27.897-1.524 28.069-1.6 28.244-1.666 28.553-1.784 28.814-1.956 29.023-2.22 29.241-2.495 29.506-2.727 29.827-2.879 30.158-3.041 30.497-3.062 30.837-2.917 31.038-2.833 31.075-2.729 30.972-2.537 30.905-2.408 30.817-2.291 30.758-2.158 30.608-1.817 30.337-1.615 30.005-1.473 29.78-1.375 29.553-1.272 29.333-1.166 28.986-1.005 28.729-.75 28.58-.399 28.483-.164 28.374 .073 28.33 .322 28.206 1 28.112 1.682 28.019 2.364 27.936 2.946 27.866 3.528 27.663 4.085 27.492 4.545 27.236 4.93 26.79 5.174 26.516 5.326 26.251 5.5 25.984 5.667 25.705 5.844 25.419 6.016 25.146 6.206 24.952 6.342 24.761 6.488 24.594 6.656 24.261 6.994 24.244 7.162 24.697 7.485 24.782 7.547 24.894 7.597 24.999 7.609 25.208 7.638 25.425 7.666 25.631 7.638 25.942 7.595 26.254 7.529 26.551 7.428 27.098 7.242 27.633 7.021 28.177 6.822 28.567 6.68 28.962 6.541 29.358 6.42 29.594 6.347 29.844 6.297 30.09 6.367 30.387 6.452 30.532 6.553 30.378 6.896 30.308 7.05 30.255 7.211 30.176 7.362 30.035 7.634 29.894 7.908 29.735 8.167 28.629 9.966 27.369 11.644 25.955 13.207 25.719 13.466 25.461 13.703 25.199 13.933 24.867 14.229 24.497 14.225 24.105 14.045 23.917 13.958 23.841 13.836 23.861 13.625 23.953 12.667 24.355 11.868 25.082 11.234 25.284 11.056 25.516 10.906 25.722 10.73 25.996 10.498 26.266 10.264 26.516 10.008 26.655 9.866 26.772 9.688 26.86 9.507 26.983 9.253 26.907 9.035 26.663 8.898 26.516 8.816 26.354 8.753 26.192 8.711 25.955 8.648 25.751 8.725 25.604 8.923 25.531 9.025 25.461 9.135 25.408 9.25 25.281 9.521 25.09 9.722 24.837 9.886 24.447 10.141 24.055 10.402 23.688 10.69 23.374 10.936 23.088 11.219 22.797 11.494 22.667 11.618 22.597 11.781 22.547 11.959 22.342 12.724 22.139 13.487 21.909 14.244 21.822 14.547 21.81 14.836 21.866 15.146 22.027 16.048 22.012 16.047 21.66 16.913 21.439 17.456 21.236 18.008 21.048 18.562 20.922 18.933 20.854 19.322 20.872 19.717 20.886 20.094 20.986 20.441 21.29 20.697 21.345 20.743 21.416 20.79 21.486 20.798 21.753 20.831 21.995 20.773 22.153 20.53 22.271 20.352 22.394 20.178 22.489 19.987 22.609 19.734 22.706 19.471 22.812 19.21 22.962 18.83 23.106 18.448 23.259 18.07 23.421 17.664 23.697 17.364 24.094 17.18 24.541 16.975 24.932 16.699 25.293 16.366 25.464 16.209 25.678 16.085 25.89 15.986 26.131 15.875 26.372 15.922 26.589 16.084 26.695 16.163 26.733 16.25 26.71 16.389 26.648 16.799 26.51 17.185 26.296 17.534 26.04 17.955 25.766 18.367 25.472 18.764 25.07 19.311 24.625 19.831 24.227 20.383 23.958 20.753 23.727 21.151 23.497 21.55 23.335 21.832 23.238 22.148 23.25 22.477 23.261 22.909 23.288 23.343 23.347 23.772 23.417 24.305 23.526 24.83 23.459 25.37 23.45 25.429 23.456 25.489 23.461 25.549 23.473 25.769 23.588 25.925 23.8 25.978 23.988 26.025 24.185 26.046 24.378 26.056 24.679 26.072 24.929 25.951 25.117 25.719 25.222 25.587 25.317 25.445 25.396 25.295 25.493 25.107 25.575 24.908 25.652 24.711 25.788 24.367 25.969 24.052 26.196 23.761 27.28 22.391 28.518 21.18 29.92 20.139 30.517 19.699 31.164 19.367 31.875 19.161 32.702 18.92 33.527 18.687 34.351 18.444 34.988 18.256 35.616 18.042 36.209 17.736 36.688 17.492 37.082 17.163 37.396 16.719 38.356 15.363 39.335 14.023 40.31 12.678 40.403 12.547 40.51 12.422 40.618 12.305 41.979 10.871 43.342 9.441 44.7 8.006 44.81 7.891 44.906 7.758 44.987 7.619 45.373 6.938 45.763 6.258 46.132 5.57 46.321 5.222 46.568 4.937 46.872 4.704 47.098 4.535 47.328 4.372 47.572 4.232 47.991 3.99 48.432 3.78 48.847 3.532 49.229 3.306 49.601 3.068 49.953 2.805 50.384 2.483 50.653 2.044 50.77 1.514 50.834 1.198 50.919 .884 50.966 .564 51.104-.384 51.594-1.093 52.41-1.581 52.729-1.773 53.057-1.96 53.388-2.135 53.885-2.397 54.388-2.644 54.891-2.897 55.385-3.147 55.797-3.494 56.129-3.94 56.284-4.154 56.447-4.36 56.606-4.573 57.197-5.363 57.774-6.166 58.385-6.941 58.723-7.365 59.105-7.759 59.5-8.131 59.712-8.332 59.979-8.488 60.244-8.616 60.575-8.776 60.889-8.697 61.16-8.44 61.447-8.169 61.484-7.958 61.24-7.65 60.641-6.891 60.154-6.068 59.838-5.147 59.8-5.037 59.701-4.937 59.613-4.847 59.402-4.643 59.169-4.454 58.965-4.24 58.862-4.134 58.781-3.994 58.723-3.854 58.647-3.675 58.703-3.543 58.868-3.444 58.918-3.412 58.973-3.391 59.028-3.37 59.291-3.276 59.553-3.294 59.806-3.391 60.422-3.634 61.043-3.866 61.65-4.13 62.588-4.543 63.507-4.99 64.395-5.498 64.656-5.647 64.854-5.847 64.976-6.119 65.082-6.35 65.182-6.584 65.275-6.825 65.388-7.097 65.484-7.381 65.603-7.653 65.81-8.135 66.16-8.485 66.635-8.708 66.816-8.793 67.007-8.873 67.197-8.94 67.494-9.049 67.794-9.14 68.091-9.247 68.457-9.375 68.788-9.556 69.069-9.831 69.285-10.049 69.521-10.25 69.754-10.447 70.426-11.01 71.112-11.557 71.853-12.034 72.088-12.184 72.335-12.318 72.59-12.435 72.748-12.509 72.926-12.562 73.101-12.588 73.487-12.647 73.707-12.381 73.587-12.01 73.543-11.875 73.479-11.738 73.395-11.625 73.223-11.38 73.045-11.14 72.85-10.919 72.216-10.209 71.494-9.603 70.766-8.997 70.301-8.612 69.807-8.296 69.197-8.191 69.191-8.191 69.182-8.185 69.175-8.185 68.713-8.109 68.395-7.823 68.125-7.471 67.841-7.103 67.645-6.688 67.469-6.262 67.229-5.666 67.098-5.043 66.988-4.413 66.943-4.153 66.822-4.052 66.563-4.028 66.488-4.022 66.406-4.022 66.332-4.022 66.088-4.026 65.863-3.969 65.652-3.84 65.216-3.573 64.772-3.32 64.341-3.046 64.203-2.958 64.074-2.838 63.972-2.705 63.216-1.741 62.457-.775 61.723 .203 61.432 .592 61.078 .875 60.644 1.075 60.388 1.192 60.129 1.307 59.891 1.454 59.706 1.569 59.535 1.716 59.385 1.875 59.209 2.063 59.272 2.284 59.513 2.378 59.81 2.496 60.125 2.533 60.444 2.483 60.896 2.409 61.347 2.32 61.794 2.225 62.301 2.114 62.804 1.982 63.31 1.876 63.447 1.847 63.601 1.859 63.738 1.888 64 1.944 64.065 2.089 63.932 2.315 63.838 2.477 63.725 2.626 63.604 2.769 63.274 3.16 62.928 3.539 62.606 3.936 62.397 4.192 62.207 4.466 62.04 4.75 61.94 4.922 61.869 5.125 61.84 5.322 61.766 5.784 62.139 6.147 62.606 6.096 62.7 6.085 62.791 6.08 62.885 6.073 63.054 6.063 63.197 6.005 63.332 5.909 63.713 5.64 64.038 5.315 64.315 4.945 64.604 4.555 64.872 4.152 65.154 3.757 65.4 3.408 65.638 3.056 65.897 2.719 66.003 2.581 66.145 2.459 66.294 2.367 67.02 1.907 67.754 1.462 68.482 1.006 68.609 .927 68.728 .819 68.819 .702 69.185 .233 69.535-.25 69.903-.721 71.014-2.151 72.375-3.291 73.957-4.175 74.131-4.269 74.304-4.36 74.507-4.36 74.984-4.357 75.373-4.563 75.707-4.89 75.882-5.063 76.088-5.16 76.344-5.168 76.52-5.174 76.697-5.228 76.872-5.244 77.016-5.256 77.132-5.313 77.247-5.39 77.716-5.698 78.188-6.006 78.66-6.309 78.828-6.416 78.966-6.544 79.078-6.712 79.229-6.938 79.363-7.188 79.563-7.362 80.494-8.172 81.291-9.103 82.038-10.078 82.462-10.627 82.919-11.134 83.459-11.575 83.766-11.828 84.045-12.119 84.363-12.362 84.746-12.659 85.022-13.015 85.156-13.482 85.244-13.792 85.434-14.043 85.645-14.282 86.285-15.005 86.994-15.65 87.764-16.234 88.122-16.506 88.504-16.75 88.916-16.934 89.332-17.116 89.738-17.31 90.139-17.515 90.351-17.622 90.557-17.748 90.747-17.885 91.066-18.112 91.369-18.362 91.686-18.594 91.988-18.815 92.31-19.012 92.675-19.119 92.835-19.166 93.007-19.188 93.175-19.208 93.316-19.229 93.388-19.112 93.45-19.018 93.516-18.916 93.419-18.847 93.359-18.779 93.328-18.748 93.297-18.721 93.266-18.691 92.272-17.762 91.279-16.825 90.275-15.904 89.96-15.62 89.731-15.307 89.625-14.896 89.582-14.725 89.496-14.562 89.404-14.412 89.297-14.235 89.244-14.229 89.041-14.282 88.803-14.343 88.566-14.422 88.322-14.462 87.969-14.516 87.794-14.37 87.769-14.009 87.754-13.815 87.764-13.619 87.764-13.369M22.65 29.687H23.211C23.25 29.673 23.291 29.65 23.33 29.646 24.567 29.519 25.625 28.993 26.56 28.189 27.136 27.692 27.66 27.141 28.116 26.537 28.665 25.815 29.3 25.207 30.079 24.741 30.176 24.68 30.261 24.589 30.332 24.495 30.644 24.092 30.946 23.678 31.254 23.273 31.329 23.18 31.408 23.089 31.502 23.016 31.908 22.694 32.319 22.375 32.733 22.061 32.825 21.992 32.937 21.932 33.048 21.906 33.477 21.8 33.909 21.7 34.341 21.619 35.029 21.488 35.716 21.383 36.404 21.255 37.347 21.077 38.147 20.64 38.775 19.904 38.906 19.748 39.057 19.604 39.178 19.442 39.598 18.883 40.027 18.332 40.42 17.756 41.119 16.726 41.879 15.745 42.753 14.852 42.916 14.681 43.088 14.513 43.231 14.322 43.75 13.634 44.375 13.067 45.104 12.607 45.431 12.401 45.685 12.113 45.891 11.783 46.163 11.35 46.444 10.924 46.726 10.498 47.397 9.47 48.075 8.451 48.841 7.491 49.301 6.91 49.79 6.354 50.366 5.878 50.554 5.722 50.744 5.653 50.991 5.666 51.223 5.68 51.419 5.725 51.609 5.861 51.885 6.06 52.175 6.24 52.465 6.416 52.571 6.479 52.694 6.532 52.815 6.555 53.685 6.709 54.557 6.863 55.432 6.999 55.737 7.045 55.997 7.16 56.237 7.347 56.588 7.623 56.872 7.962 57.131 8.322 57.359 8.641 57.578 8.964 57.826 9.271 58.191 9.725 58.669 10.019 59.247 10.102 59.622 10.157 60.013 10.18 60.391 10.15 61.447 10.061 62.473 9.805 63.463 9.423 65.006 8.827 66.332 7.898 67.49 6.732 68.2 6.014 68.878 5.258 69.554 4.502 70.4 3.556 71.216 2.583 72.172 1.742 72.74 1.239 73.272 .703 73.797 .156 73.897 .052 73.991-.061 74.101-.154 74.21-.247 74.325-.341 74.45-.4 75.116-.709 75.788-.998 76.447-1.314 76.872-1.521 77.316-1.655 77.781-1.721 78.028-1.756 78.27-1.8 78.513-1.835 79.247-1.942 79.91-2.21 80.478-2.688 80.7-2.875 80.928-3.055 81.141-3.25 82.219-4.231 83.197-5.313 84.103-6.457 84.45-6.901 84.828-7.315 85.244-7.691 85.525-7.941 85.804-8.193 86.094-8.428 87.047-9.208 87.906-10.081 88.701-11.016 89.088-11.471 89.481-11.921 89.866-12.375 90.763-13.418 91.737-14.375 92.818-15.225 94.153-16.275 95.438-17.38 96.656-18.559 96.938-18.834 97.254-19.065 97.604-19.245 98.101-19.502 98.606-19.752 99.094-20.032 99.541-20.291 99.984-20.563 100.403-20.87 100.632-21.037 100.835-21.26 100.994-21.497 101.185-21.776 101.169-22.093 100.969-22.38 100.656-22.84 100.2-22.941 99.685-22.866 99.416-22.828 99.153-22.75 98.888-22.698 98.598-22.637 98.307-22.543 98.013-22.534 96.76-22.494 95.507-22.563 94.263-22.718 93.494-22.816 92.728-22.907 91.95-22.863 91.082-22.816 90.216-22.748 89.35-22.698 88.909-22.671 88.462-22.625 88.022-22.647 86.628-22.724 85.237-22.828 83.844-22.921 83.544-22.941 83.247-22.981 82.95-22.966 82.101-22.927 81.25-22.847 80.4-22.813 78.69-22.744 76.979-22.791 75.269-22.917 74.473-22.974 73.676-23.041 72.872-23.034 68.428-22.998 63.979-22.959 59.535-22.954 52.601-22.944 45.669-22.954 38.732-22.966 31.734-22.978 24.731-23.003 17.733-23.021 11.165-23.041 4.597-23.057-1.97-23.072-9.431-23.091-16.892-23.11-24.353-23.127-24.984-23.13-25.614-23.094-26.242-23.107-26.898-23.119-27.554-23.168-28.207-23.204-28.274-23.209-28.339-23.231-28.406-23.241H-29.427C-29.517-23.228-29.609-23.209-29.703-23.198-29.953-23.157-30.214-23.144-30.456-23.075-30.7-23.006-30.935-22.897-31.152-22.771-31.394-22.627-31.464-22.401-31.384-22.13-31.332-21.947-31.27-21.753-31.175-21.587-31.035-21.333-30.881-21.082-30.7-20.863-30.232-20.309-29.756-19.765-29.265-19.235-28.839-18.778-28.465-18.281-28.18-17.728-27.989-17.357-27.806-16.981-27.642-16.597-27.363-15.957-27.101-15.31-26.831-14.669-26.369-13.579-25.72-12.619-24.858-11.807-24.426-11.397-23.976-11.006-23.532-10.61-22.789-9.947-22.03-9.299-21.301-8.623-20.678-8.043-20.084-7.432-19.484-6.828-19.381-6.721-19.288-6.591-19.226-6.458-18.888-5.734-18.546-5.006-18.232-4.272-17.959-3.634-17.562-3.091-17.074-2.608-16.039-1.59-14.828-.844-13.478-.322-13.314-.258-13.134-.224-12.958-.197-12.306-.094-11.65-.169-10.997-.227-10.395-.28-9.795-.345-9.192-.389-8.731-.422-8.272-.4-7.82-.295-7.428-.204-7.149-.002-7.031 .41-6.882 .933-6.708 1.45-6.532 1.964-6.456 2.179-6.371 2.396-6.247 2.587-5.665 3.5-5.019 4.367-4.312 5.187-3.134 6.55-1.8 7.727-.253 8.663-.117 8.743 .018 8.789 .176 8.8 .626 8.834 1.075 8.876 1.522 8.928 2.199 9.006 2.866 8.981 3.525 8.802 3.892 8.702 4.266 8.617 4.636 8.513 5.611 8.233 6.541 8.368 7.422 8.85 7.675 8.988 7.929 9.135 8.161 9.306 9.548 10.326 10.642 11.581 11.25 13.217 11.303 13.36 11.364 13.5 11.415 13.646 11.771 14.665 12.12 15.688 12.479 16.707 12.758 17.503 13.055 18.295 13.528 19 14.087 19.831 14.687 20.64 15.275 21.453 15.554 21.836 15.91 22.139 16.312 22.389 16.639 22.591 16.968 22.784 17.286 23 17.538 23.171 17.783 23.359 18.015 23.558 18.411 23.901 18.611 24.33 18.558 24.87 18.535 25.105 18.55 25.346 18.558 25.584 18.567 25.797 18.644 25.979 18.847 26.089 18.929 26.134 18.997 26.205 19.075 26.251 19.217 26.334 19.27 26.459 19.275 26.611 19.278 26.783 19.278 26.953 19.282 27.124 19.284 27.332 19.346 27.502 19.558 27.597 19.864 27.732 20.084 27.961 20.275 28.23 20.398 28.404 20.536 28.567 20.666 28.734 20.869 29 21.125 29.188 21.442 29.291 21.7 29.375 21.962 29.455 22.221 29.537 22.366 29.584 22.506 29.636 22.65 29.687" fill="#831c36"/>
<path transform="matrix(1,0,0,-1,164.3018,137.94579)" d="M0 0C.004 .047 .003 .072 .007 .096 .02 .133 .041 .172 .063 .227 .149 .215 .231 .21 .31 .193 .426 .167 .443 .065 .44-.026 .438-.104 .376-.146 .297-.119 .193-.083 .097-.04 0 0" fill="#831c36"/>
<path transform="matrix(1,0,0,-1,127.5693,123.223697)" d="M0 0C-.076 .011-.159 .001-.2 .036-.259 .089-.309 .171-.333 .247-.368 .347-.244 .438-.141 .4-.006 .35 .029 .267 0 0" fill="#831c36"/>
<path transform="matrix(1,0,0,-1,92.7632,152.48049)" d="M0 0C-.05-.462-.085-1.005-.173-1.541-.25-2.009-.477-2.411-.914-2.646-1.182-2.793-1.464-2.912-1.734-3.06-1.949-3.178-2.158-3.307-2.361-3.446-2.519-3.553-2.572-3.709-2.581-3.906-2.596-4.34-2.602-4.777-2.687-5.2-2.822-5.888-3.155-6.494-3.645-6.999-3.792-7.152-3.965-7.281-4.139-7.399-4.465-7.614-5.006-7.531-5.097-6.984-5.144-6.687-5.156-6.371-5.109-6.074-4.921-4.877-4.486-3.763-3.937-2.687-3.872-2.563-3.783-2.472-3.651-2.412-3.41-2.306-3.178-2.182-2.939-2.068-2.288-1.762-1.884-1.244-1.714-.556-1.587-.047-1.508 .476-1.402 .994-1.337 1.303-1.241 1.604-1.067 1.87-.85 2.201-.667 2.204-.385 1.878-.173 1.631-.118 1.313-.077 1-.041 .697-.03 .391 0 0" fill="#831c36"/>
</g>
</g>
</g>
</g>
</g>
</svg>
